<svg width="34" height="34" viewBox="0 0 34 34" fill="none" xmlns="http://www.w3.org/2000/svg">
<g clip-path="url(#clip0_1687_4536)">
<path d="M24.7217 17.5686C24.7514 15.2642 25.9612 13.1355 27.9271 11.9285C26.6813 10.1516 24.6693 9.06534 22.4982 8.99751C20.2141 8.75807 17.9997 10.3625 16.8357 10.3625C15.6492 10.3625 13.8571 9.02128 11.9273 9.06093C9.38812 9.14285 7.07832 10.5496 5.84298 12.7665C3.21228 17.315 5.17455 23.9998 7.69455 27.6764C8.95535 29.4767 10.4289 31.4878 12.357 31.4165C14.2437 31.3384 14.9483 30.215 17.2258 30.215C19.4821 30.215 20.1432 31.4165 22.1105 31.3712C24.135 31.3384 25.4106 29.5628 26.6271 27.7454C27.533 26.4626 28.2301 25.0448 28.6926 23.5445C26.288 22.5289 24.7245 20.176 24.7217 17.5686Z" fill="#4B4B4B"/>
<path d="M21.006 6.57956C22.1099 5.25619 22.6537 3.55523 22.522 1.83789C20.8355 2.01478 19.2777 2.81972 18.1589 4.09231C17.0542 5.34789 16.4945 6.99053 16.6032 8.65843C18.3123 8.676 19.935 7.90979 21.006 6.57956Z" fill="#4B4B4B"/>
</g>
<defs>
<clipPath id="clip0_1687_4536">
<rect width="34" height="34" fill="white"/>
</clipPath>
</defs>
</svg>
