<svg width="166" height="162" viewBox="0 0 166 162" fill="none" xmlns="http://www.w3.org/2000/svg">
<path fill-rule="evenodd" clip-rule="evenodd" d="M137.01 161.569H38.3448C35.7597 161.569 33.6055 159.415 33.6055 156.83C33.6055 154.245 35.7597 152.09 38.3448 152.09H137.01C139.595 152.09 141.749 154.245 141.749 156.83C141.749 159.415 139.681 161.569 137.01 161.569Z" fill="#AFAFAF" fill-opacity="0.3"/>
<path fill-rule="evenodd" clip-rule="evenodd" d="M125.893 133.478C124.256 130.203 120.292 128.824 117.017 130.462L107.625 135.029C104.35 136.666 102.972 140.63 104.609 143.904C106.246 147.179 110.21 148.557 113.484 146.92L122.877 142.353C126.151 140.716 127.53 136.752 125.893 133.478Z" fill="#F49000"/>
<path fill-rule="evenodd" clip-rule="evenodd" d="M82.2945 145.369C82.2945 141.664 79.2785 138.734 75.6594 138.734H65.2328C61.5274 138.734 58.5977 141.75 58.5977 145.369C58.5977 149.075 61.6136 152.004 65.2328 152.004H75.6594C79.3647 152.004 82.2945 149.075 82.2945 145.369Z" fill="#F49000"/>
<path fill-rule="evenodd" clip-rule="evenodd" d="M11.8909 44.7224C32.4856 37.0532 45.2387 31.2798 50.2366 27.5745C53.0802 25.4202 55.1483 21.9734 56.4409 17.234C58.9398 8.01383 68.4185 2.49894 77.6387 4.99788C81.3441 6.03192 84.7047 8.18618 87.0313 11.2883L118.311 52.8223C135.287 75.3989 130.806 107.454 108.229 124.516C85.6526 141.492 53.5973 137.011 36.5356 114.434L4.04939 71.3489C-1.72401 63.6798 -0.172945 52.9085 7.4962 47.1351C8.78875 46.1011 10.2536 45.3255 11.8909 44.7224Z" fill="#58CC02"/>
<path fill-rule="evenodd" clip-rule="evenodd" d="M56.0094 42.6543C62.386 43.8607 67.6424 38.8628 68.1594 33.4341C69.0211 25.0756 75.3977 31.883 87.203 53.7703L70.0551 66.6958C56.3541 49.8926 51.7009 41.8788 56.0094 42.6543Z" fill="#89E219"/>
<path fill-rule="evenodd" clip-rule="evenodd" d="M37.8286 47.4799L38.8626 46.7043C47.3073 40.3278 59.3712 42.0512 65.7478 50.4958L72.7275 59.7161C79.1041 68.1607 77.3807 80.2246 68.936 86.6012L67.902 87.3767C59.4573 93.7533 47.3935 92.0299 41.0169 83.5852L34.0371 74.365C27.6605 65.9203 29.3839 53.8565 37.8286 47.4799Z" fill="#89E219"/>
<path fill-rule="evenodd" clip-rule="evenodd" d="M36.0191 39.0351L58.5957 43.1712C59.8021 43.4298 60.4053 44.7223 59.8021 45.7563C56.9585 50.8404 51.0989 53.5978 45.2393 52.4776C39.3797 51.3574 34.8989 46.5319 34.2095 40.7585C34.0372 39.5521 34.8989 38.7766 36.0191 39.0351Z" fill="#89E219"/>
<path fill-rule="evenodd" clip-rule="evenodd" d="M32.3135 46.8765L54.6316 51.185C55.838 51.4435 56.4412 52.7361 55.838 53.7701C52.9944 58.8542 47.1348 61.6116 41.2752 60.4914C35.4156 59.3712 30.9348 54.5456 30.2454 48.7722C30.0731 47.652 31.1071 46.618 32.3135 46.8765Z" fill="#89E219"/>
<path fill-rule="evenodd" clip-rule="evenodd" d="M70.1426 13.8734L68.2469 32.4C68.1607 33.3478 69.2809 34.2096 70.4873 33.951C76.0883 33.0032 80.3107 29.0393 80.7415 24.2138C81.1724 19.3883 77.7256 14.8213 72.383 12.8393C71.1766 12.4947 70.2288 12.9255 70.1426 13.8734Z" fill="#89E219"/>
<path fill-rule="evenodd" clip-rule="evenodd" d="M78.7598 13.9596L76.864 32.4862C76.7779 33.434 77.8981 34.2957 79.1045 34.0372C84.7055 33.0893 88.9279 29.1255 89.3587 24.3C89.7896 19.4745 86.3428 14.9074 81.0002 12.9255C79.7938 12.5808 78.846 13.0117 78.7598 13.9596Z" fill="#89E219"/>
<path fill-rule="evenodd" clip-rule="evenodd" d="M74.6226 19.7331C81.2577 14.7352 90.7364 16.0278 95.7343 22.6629L107.712 38.5182C112.71 45.1533 111.417 54.632 104.782 59.6299C98.1471 64.6278 88.6683 63.3352 83.6705 56.7001L71.6928 40.8448C66.6949 34.2097 67.9875 24.7309 74.6226 19.7331Z" fill="#89E219"/>
<path fill-rule="evenodd" clip-rule="evenodd" d="M42.8253 52.133C49.0296 47.4798 57.9051 48.6862 62.5583 54.8905L67.8147 61.8703C72.4679 68.0745 71.2615 76.95 65.0573 81.6032C58.853 86.2564 49.9775 85.05 45.3243 78.8458L40.0679 71.866C35.3285 65.6617 36.6211 56.7862 42.8253 52.133Z" fill="white"/>
<path fill-rule="evenodd" clip-rule="evenodd" d="M47.9976 58.5097C50.9274 56.3554 55.0636 56.8724 57.2178 59.8022L61.6987 65.7479C63.8529 68.6777 63.3359 72.8139 60.4061 74.9682C57.4763 77.1224 53.3402 76.6054 51.1859 73.6756L46.7051 67.7299C44.5508 64.8862 45.154 60.7501 47.9976 58.5097Z" fill="#4B4B4B"/>
<path fill-rule="evenodd" clip-rule="evenodd" d="M50.41 65.1447C50.41 67.5242 48.481 69.4532 46.1015 69.4532C43.722 69.4532 41.793 67.5242 41.793 65.1447C41.793 62.7652 43.722 60.8362 46.1015 60.8362C48.481 60.8362 50.41 62.7652 50.41 65.1447Z" fill="white"/>
<path fill-rule="evenodd" clip-rule="evenodd" d="M77.3815 26.6265C82.3793 22.9212 89.4453 23.8691 93.1506 28.867L101.509 39.9829C105.214 44.9808 104.267 52.0468 99.2687 55.7521C94.2708 59.4574 87.2049 58.5095 83.4996 53.5117L75.141 42.3957C71.3495 37.3978 72.3836 30.3319 77.3815 26.6265Z" fill="white"/>
<path fill-rule="evenodd" clip-rule="evenodd" d="M82.1206 32.917C84.5334 31.1074 87.9802 31.6245 89.7897 33.9511L95.7355 41.7925C97.545 44.2053 97.028 47.6521 94.7014 49.4617C92.2887 51.2713 88.8419 50.7542 87.0323 48.4276L81.0004 40.5C79.1908 38.0872 79.7078 34.7266 82.1206 32.917Z" fill="#4B4B4B"/>
<path fill-rule="evenodd" clip-rule="evenodd" d="M83.0697 43.2575C84.9655 41.7926 85.3102 39.1213 83.9314 37.2256C82.5527 35.3299 79.7953 34.899 77.8995 36.3639C76.0038 37.8288 75.6591 40.5001 77.0378 42.3958C78.4166 44.2916 81.174 44.6362 83.0697 43.2575Z" fill="white"/>
<path fill-rule="evenodd" clip-rule="evenodd" d="M50.7557 89.9618L44.293 81.6894C44.8962 81.1724 60.0621 69.3671 76.0036 72.7277L75.4004 75.4852C74.6249 79.2767 71.5228 82.2926 67.6451 82.7235C58.6834 83.7575 50.8419 89.8756 50.7557 89.9618Z" fill="#89E219"/>
<path fill-rule="evenodd" clip-rule="evenodd" d="M90.7363 61.0947L89.53 59.4574C86.9449 55.9245 82.0331 55.2351 78.5002 57.8202C74.9672 60.4053 74.2778 65.317 76.8629 68.85L78.0693 70.4872C80.6544 74.0202 85.5661 74.7096 89.0991 72.1245C92.5459 69.4532 93.3214 64.5415 90.7363 61.0947Z" fill="#F49000"/>
<path fill-rule="evenodd" clip-rule="evenodd" d="M74.708 69.5394C72.4676 65.2309 73.7602 59.8883 77.724 56.8724C81.6878 53.9426 87.2027 54.2873 90.6495 57.6479L90.908 57.9064L87.9783 62.2149L74.7942 69.7979L74.708 69.5394Z" fill="#FFC200"/>
<path fill-rule="evenodd" clip-rule="evenodd" d="M78.416 62.1286C77.9851 62.2148 77.5543 62.1286 77.2096 61.9563C76.5202 61.5254 76.4341 60.5776 76.8649 59.9744C77.9851 58.4233 79.45 57.3031 81.2596 56.6999C82.0351 56.4414 82.8107 56.8722 83.0692 57.6478C83.3277 58.4233 82.8968 59.1988 82.1213 59.4574C80.9149 59.8882 79.8809 60.5776 79.1915 61.6116C79.0192 61.8701 78.7607 62.0425 78.416 62.1286Z" fill="#FFDE00"/>
<mask id="mask0_1687_4532" style="mask-type:luminance" maskUnits="userSpaceOnUse" x="62" y="2" width="103" height="103">
<path d="M119.234 4.34828L125.039 9.41634C125.799 10.0773 126.804 10.3846 127.804 10.2617L135.449 9.30506C138.776 8.88686 141.939 10.8624 143.023 14.0354L145.515 21.3263C145.843 22.2787 146.56 23.0473 147.487 23.4408L154.586 26.4352C157.677 27.7373 159.427 31.0311 158.777 34.3208L157.291 41.8807C157.097 42.8667 157.331 43.8889 157.936 44.6915L162.589 50.8363C164.61 53.5086 164.48 57.2323 162.277 59.7571L157.207 65.5623C156.544 66.3216 156.237 67.3276 156.364 68.3274L157.318 75.9725C157.737 79.2995 155.761 82.4633 152.588 83.5467L145.297 86.0385C144.345 86.3655 143.577 87.0805 143.183 88.0062L140.188 95.1097C138.886 98.1999 135.592 99.9502 132.302 99.3001L124.743 97.8146C123.754 97.619 122.729 97.8549 121.925 98.4629L115.783 103.116C113.11 105.137 109.387 105.007 106.862 102.804L101.059 97.7301C100.3 97.0675 99.2936 96.7606 98.2938 96.8867L90.6487 97.8413C87.3216 98.2604 84.1579 96.2845 83.0745 93.111L80.5889 85.8204C80.2611 84.8679 79.5444 84.0993 78.6171 83.7058L71.5178 80.7115C68.4282 79.4087 66.6781 76.1153 67.3273 72.8258L68.815 65.266C69.0072 64.2771 68.7708 63.2532 68.1645 62.4487L63.5135 56.3102C61.4898 53.6387 61.6199 49.9134 63.8251 47.3895L68.8932 41.5821C69.5542 40.8219 69.8614 39.8169 69.7386 38.817L68.7819 31.1719C68.3637 27.845 70.3393 24.6818 73.5122 23.5977L80.8029 21.1122C81.7554 20.7843 82.5239 20.0676 82.9175 19.1403L85.9118 12.041C87.2146 8.95136 90.5079 7.20129 93.7975 7.85054L101.357 9.3382C102.344 9.52855 103.365 9.29213 104.168 8.68752L110.313 4.03676C112.985 2.01299 116.71 2.14309 119.234 4.34828Z" fill="url(#paint0_linear_1687_4532)"/>
</mask>
<g mask="url(#mask0_1687_4532)">
<path fill-rule="evenodd" clip-rule="evenodd" d="M60.3037 102.76L162.236 106.319L165.796 4.38647L63.8633 0.826904L60.3037 102.76Z" fill="url(#paint1_linear_1687_4532)"/>
</g>
<path fill-rule="evenodd" clip-rule="evenodd" d="M133.001 47.4351C136.555 56.124 133.436 66.1124 125.569 71.2346C117.702 76.3568 107.305 75.1685 100.797 68.4032C93.5515 70.7335 85.692 68.2418 81.2119 62.3018C80.7656 61.709 80.63 60.9383 80.8472 60.2288C81.0644 59.5192 81.6081 58.9565 82.3098 58.7152L91.9176 55.4048L87.3521 48.3783C86.146 46.5219 85.9507 44.1846 86.8319 42.1537C87.7132 40.1229 89.5537 38.669 91.7333 38.2818C97.1845 37.3176 100.706 36.3207 102.296 35.2914C103.887 34.2621 106.19 31.497 109.204 26.9963C110.439 25.1561 112.516 24.0592 114.732 24.0768C116.948 24.0944 119.007 25.2241 120.212 27.0837L124.734 34.0481L131.557 26.7311C132.063 26.1879 132.799 25.9198 133.536 26.0101C134.272 26.1004 134.921 26.5381 135.281 27.1874C138.856 33.6481 137.977 41.7688 133.001 47.4351ZM114.905 79.2583L109.851 78.3623C108.093 78.0818 106.434 79.2653 106.128 81.0198C105.821 82.7743 106.98 84.4498 108.73 84.7823L113.786 85.6763C115.545 85.9569 117.203 84.7734 117.51 83.0188C117.816 81.2643 116.657 79.5886 114.907 79.2563L114.905 79.2583ZM142.383 57.4286C141.545 57.2184 140.658 57.3504 139.917 57.7955C139.177 58.2406 138.644 58.9622 138.437 59.8008L137.198 64.7777C136.818 66.5002 137.878 68.2123 139.589 68.6407C141.3 69.0691 143.042 68.0584 143.518 66.3601L144.755 61.3831C145.192 59.6361 144.13 57.8657 142.383 57.4286Z" fill="white"/>
<path fill-rule="evenodd" clip-rule="evenodd" d="M98.4934 52.7361L36.1924 97.9755C32.8317 100.388 32.8317 105.386 36.1924 107.799C52.22 119.432 74.2796 119.518 90.7381 107.54C107.197 95.5627 113.918 74.6234 107.8 55.7521C106.507 51.8744 101.768 50.3234 98.4934 52.7361Z" fill="#58CC02"/>
<path fill-rule="evenodd" clip-rule="evenodd" d="M133.046 24.4723L145.454 15.0797C148.125 13.0978 151.917 13.6148 153.899 16.2861L161.137 25.9372C163.119 28.6085 162.602 32.4 159.931 34.3819L156.398 37.0531C151.572 40.6723 144.851 40.3276 140.456 36.1053L132.701 28.6946C131.581 27.6606 131.495 25.851 132.615 24.7308C132.787 24.6446 132.873 24.5585 133.046 24.4723Z" fill="#58CC02"/>
<defs>
<linearGradient id="paint0_linear_1687_4532" x1="1606.48" y1="1655.14" x2="8358.9" y2="8895.94" gradientUnits="userSpaceOnUse">
<stop stop-color="#FFC100"/>
<stop offset="1" stop-color="#FFA300"/>
</linearGradient>
<linearGradient id="paint1_linear_1687_4532" x1="1606.47" y1="1655.07" x2="8358.57" y2="8895.81" gradientUnits="userSpaceOnUse">
<stop stop-color="#FFC100"/>
<stop offset="1" stop-color="#FFA300"/>
</linearGradient>
</defs>
</svg>
