<svg width="245" height="162" viewBox="0 0 245 162" fill="none" xmlns="http://www.w3.org/2000/svg">
<g clip-path="url(#clip0_1684_4279)">
<path d="M215.219 0.153564H29.3801C24.027 0.153564 19.6875 4.49308 19.6875 9.84615V141.912C19.6875 147.265 24.027 151.604 29.3801 151.604H215.219C220.572 151.604 224.911 147.265 224.911 141.912V9.84615C224.911 4.49308 220.572 0.153564 215.219 0.153564Z" fill="#5C5B5B"/>
<path d="M204.121 12.8314H38.8654C36.1891 12.8314 34.0195 15.001 34.0195 17.6773V134.08C34.0195 136.756 36.1891 138.926 38.8654 138.926H204.121C206.797 138.926 208.966 136.756 208.966 134.08V17.6773C208.966 15.001 206.797 12.8314 204.121 12.8314Z" fill="white"/>
<path d="M34.0977 110.182H209.42V134.121C209.42 135.407 208.909 136.64 208 137.549C207.091 138.458 205.859 138.968 204.573 138.968H38.9444C38.3078 138.968 37.6775 138.843 37.0894 138.599C36.5013 138.356 35.967 137.998 35.5169 137.548C35.0668 137.098 34.7099 136.564 34.4663 135.976C34.2228 135.387 34.0975 134.757 34.0977 134.121V110.18V110.182Z" fill="#70D700"/>
<path d="M71.5117 124.409L74.8387 127.7C74.9551 127.815 75.1122 127.88 75.2759 127.88C75.4397 127.88 75.5968 127.815 75.7131 127.7L82.0645 121.415" stroke="white" stroke-width="2.79531" stroke-linecap="round"/>
<path d="M175.897 33.1379H72.9518C71.0972 33.1379 69.5938 34.6414 69.5938 36.496V36.4969C69.5938 38.3516 71.0972 39.855 72.9518 39.855H175.897C177.752 39.855 179.255 38.3516 179.255 36.4969V36.496C179.255 34.6414 177.752 33.1379 175.897 33.1379Z" fill="#D2E4E8"/>
<path d="M105.568 33.1379H72.9518C71.0972 33.1379 69.5938 34.6414 69.5938 36.496V36.4969C69.5938 38.3516 71.0972 39.855 72.9518 39.855H105.568C107.423 39.855 108.926 38.3516 108.926 36.4969V36.496C108.926 34.6414 107.423 33.1379 105.568 33.1379Z" fill="#70D700"/>
<path d="M1.61558 147.009H242.985C243.197 147.009 243.407 147.051 243.603 147.132C243.8 147.213 243.978 147.332 244.128 147.482C244.278 147.632 244.397 147.811 244.478 148.007C244.559 148.203 244.601 148.413 244.601 148.625V154.283C244.601 158.301 241.346 161.558 237.33 161.558H7.27011C3.25513 161.558 2.43891e-07 158.3 2.43891e-07 154.283V148.625C-0.000116369 148.413 0.0415858 148.203 0.122724 148.007C0.203862 147.811 0.322847 147.632 0.472879 147.482C0.622911 147.332 0.80105 147.213 0.997119 147.132C1.19319 147.051 1.40334 147.009 1.61558 147.009Z" fill="#C1C9CB"/>
<path opacity="0.25" d="M273.223 -39.9457V94.5025L45.0898 -39.9457H273.223Z" fill="white"/>
<path opacity="0.4" d="M147.255 121.257H91.6147C90.82 121.257 90.1758 121.901 90.1758 122.696V122.697C90.1758 123.492 90.82 124.136 91.6147 124.136H147.255C148.05 124.136 148.694 123.492 148.694 122.697V122.696C148.694 121.901 148.05 121.257 147.255 121.257Z" fill="white"/>
<path opacity="0.4" d="M119.435 127.015H91.6147C90.82 127.015 90.1758 127.659 90.1758 128.454V128.455C90.1758 129.249 90.82 129.894 91.6147 129.894H119.435C120.229 129.894 120.874 129.249 120.874 128.455V128.454C120.874 127.659 120.229 127.015 119.435 127.015Z" fill="white"/>
<path d="M93.5396 59.2065H75.145C72.4977 59.2065 70.3516 61.3527 70.3516 64V84.8002C70.3516 87.4475 72.4977 89.5936 75.145 89.5936H93.5396C96.1869 89.5936 98.3331 87.4475 98.3331 84.8002V64C98.3331 61.3527 96.1869 59.2065 93.5396 59.2065Z" stroke="#D2E4E8" stroke-width="1.59783"/>
<path d="M133.508 59.2065H115.114C112.466 59.2065 110.32 61.3527 110.32 64V84.8002C110.32 87.4475 112.466 89.5936 115.114 89.5936H133.508C136.156 89.5936 138.302 87.4475 138.302 84.8002V64C138.302 61.3527 136.156 59.2065 133.508 59.2065Z" fill="#D2E4E8" stroke="#D2E4E8" stroke-width="1.59783"/>
<path d="M173.481 59.2065H155.086C152.439 59.2065 150.293 61.3527 150.293 64V84.8002C150.293 87.4475 152.439 89.5936 155.086 89.5936H173.481C176.128 89.5936 178.274 87.4475 178.274 84.8002V64C178.274 61.3527 176.128 59.2065 173.481 59.2065Z" stroke="#D2E4E8" stroke-width="1.59783"/>
</g>
<defs>
<clipPath id="clip0_1684_4279">
<rect width="245" height="161.558" fill="white"/>
</clipPath>
</defs>
</svg>
