<svg width="168" height="219" viewBox="0 0 168 219" fill="none" xmlns="http://www.w3.org/2000/svg">
<path d="M143.823 43.504C133.028 43.504 124.276 52.2564 124.276 63.0519V93.1342C124.276 103.931 133.028 112.682 143.823 112.682H157.564C159.104 112.682 160.581 112.07 161.67 110.981C162.759 109.891 163.371 108.414 163.371 106.874V63.0519C163.371 52.2564 154.62 43.504 143.823 43.504Z" fill="#EA2B2B"/>
<path d="M90.9991 197.019C91.7059 200.136 90.9194 203.111 88.6387 205.946" stroke="#F49000" stroke-width="11.979" stroke-linecap="round" stroke-linejoin="round"/>
<path d="M40.2329 43.4629H132.8C143.225 43.4629 151.676 51.914 151.676 62.3389V157.82C151.676 168.245 143.225 176.696 132.8 176.696H40.2329C29.808 176.696 21.3569 168.245 21.3569 157.82V62.3389C21.3569 51.914 29.808 43.4629 40.2329 43.4629Z" fill="#FF4B4B"/>
<path d="M84.7873 43.4629H38.6496C28.0988 43.4629 19.5463 52.4957 19.5463 63.6387V156.521C19.5463 167.664 28.0988 176.697 38.6496 176.697H84.7873C95.3381 176.697 103.891 167.664 103.891 156.521V63.6387C103.891 52.4957 95.3381 43.4629 84.7873 43.4629Z" fill="#FF4B4B"/>
<path d="M24.8529 53.2116L32.3604 50.3278C33.2504 50.0201 34.2251 50.0703 35.0787 50.4678C35.9324 50.8653 36.5982 51.5789 36.9355 52.4581L43.1496 68.6648C43.4945 69.5636 43.4684 70.5626 43.0767 71.4421C42.6851 72.3215 41.9602 73.0094 41.0614 73.3544L21.7243 80.7831V63.6387C21.7243 59.84 22.8317 56.2283 24.8529 53.2116Z" fill="#1CB0F6" stroke="#FFDE00" stroke-width="4.356"/>
<path d="M71.576 76.5096L71.5796 76.506C75.9274 72.9878 82.3046 73.6597 85.8237 78.0075C89.3456 82.3589 88.6746 88.7416 84.325 92.2653L77.2941 97.9615L77.2896 97.9651C72.9418 101.484 66.5646 100.812 63.0464 96.4645C59.5246 92.1131 60.1956 85.7304 64.5451 82.2058L71.576 76.5096Z" fill="white" stroke="#F49000" stroke-width="4.356"/>
<path d="M120.906 61.0198C120.906 51.3234 128.766 43.4629 138.463 43.4629C148.159 43.4629 156.02 51.3234 156.02 61.0198V159.139C156.02 168.835 148.159 176.696 138.463 176.696C128.766 176.696 120.906 168.835 120.906 159.139V61.0198Z" fill="#EA2B2B"/>
<path d="M148.653 109.258L160.252 111.936C164.354 112.883 166.912 116.976 165.965 121.078L157.988 155.629C157.041 159.732 152.948 162.289 148.846 161.342L137.247 158.665C133.145 157.717 130.587 153.624 131.534 149.522L139.511 114.971C140.458 110.868 144.551 108.311 148.653 109.258Z" fill="#CCF8F7"/>
<path d="M162.441 120.856C154.848 124.145 149.769 126.106 147.205 126.737C145.01 127.279 143.045 126.482 141.305 124.345C141.177 124.187 141.006 124.068 140.813 124.002C140.62 123.936 140.412 123.926 140.214 123.972C140.015 124.018 139.833 124.119 139.689 124.264C139.545 124.408 139.445 124.59 139.399 124.789L133.875 148.965C133.425 150.933 133.774 152.999 134.846 154.71C135.917 156.421 137.624 157.637 139.591 158.091L147.338 159.879C149.306 160.334 151.374 159.988 153.087 158.919C154.801 157.85 156.02 156.145 156.478 154.177L163.934 122.102C163.98 121.906 163.97 121.701 163.906 121.509C163.842 121.318 163.726 121.149 163.571 121.02C163.417 120.89 163.229 120.807 163.029 120.778C162.83 120.749 162.626 120.776 162.441 120.856Z" fill="#47D7FF"/>
<path d="M150.906 99.6513L163.595 102.581C164.572 102.806 165.18 103.781 164.955 104.757L164.142 108.278C163.917 109.255 162.942 109.864 161.965 109.638L149.277 106.709C148.3 106.484 147.691 105.509 147.917 104.532L148.73 101.011C148.955 100.035 149.93 99.4258 150.906 99.6513Z" fill="#1899D6"/>
<path d="M148.279 106.439L162.032 109.614C163.007 109.839 163.614 110.812 163.39 111.786C163.165 112.761 162.192 113.368 161.217 113.143L147.464 109.968C146.489 109.743 145.882 108.77 146.107 107.796C146.332 106.822 147.304 106.214 148.279 106.439Z" fill="#CCF8F7"/>
<path d="M15.5669 177.666C6.97009 177.666 0.000988007 170.502 0.000988007 161.665C0.000988007 152.828 6.97009 145.665 15.5669 145.665C24.1637 145.665 31.1328 152.828 31.1328 161.665C31.1328 170.502 24.1637 177.666 15.5669 177.666Z" fill="#78C800"/>
<path d="M27.5186 140.839H41.9817C50.7831 140.839 57.918 147.974 57.918 156.776C57.918 165.577 50.7831 172.712 41.9817 172.712H27.5186C18.7172 172.712 11.5823 165.577 11.5823 156.776C11.5823 147.974 18.7172 140.839 27.5186 140.839Z" stroke="#FF4B4B" stroke-width="6.897"/>
<path d="M86.7911 87.4179C67.7941 93.049 55.4759 95.8641 49.8356 95.8641C46.6236 95.8641 43.2787 94.5028 39.8009 91.7794C33.0295 86.4774 23.2413 87.6691 17.9393 94.4414C15.7941 97.1814 14.6284 100.561 14.6283 104.041V150.803C14.6283 176.252 35.2588 196.883 60.7091 196.883C86.1576 196.883 106.789 176.252 106.789 150.802V102.349C106.789 93.7484 99.8169 86.7762 91.2158 86.7762C89.718 86.7762 88.2275 86.9926 86.7911 87.4179Z" fill="#78C800"/>
<path fill-rule="evenodd" clip-rule="evenodd" d="M53.9349 109.836C49.9703 114.16 43.4968 113.441 40.1775 109.794C35.035 104.263 34.1468 112.565 37.5155 134.7H56.8132C57.5374 115.241 56.5785 106.953 53.9349 109.836Z" fill="#8EE000"/>
<path fill-rule="evenodd" clip-rule="evenodd" d="M69.6218 103.472H68.4732C58.9252 103.472 51.1849 111.212 51.1849 120.761V131.158C51.1849 140.706 58.9252 148.446 68.4732 148.446H69.6218C79.1698 148.446 86.9102 140.706 86.9102 131.158V120.761C86.9102 111.213 79.1698 103.472 69.6218 103.472Z" fill="#8EE000"/>
<path d="M66.2779 96.4214L52.306 111.606C51.5727 112.42 51.8459 113.711 52.845 114.154C57.6456 116.29 63.3739 115.086 66.9865 111.074C70.6 107.062 71.1995 101.241 68.5732 96.6919C68.0269 95.7431 67.0112 95.6084 66.2779 96.4214Z" fill="#8EE000"/>
<path d="M73.2318 100.031L59.556 115.215C58.8227 116.029 59.0959 117.32 60.095 117.763C64.8956 119.899 70.6239 118.695 74.2365 114.683C77.85 110.671 78.4495 104.85 75.8232 100.3C75.6959 100.08 75.5183 99.8934 75.305 99.7553C75.0918 99.6171 74.8488 99.5314 74.5961 99.5052C74.3434 99.4789 74.0881 99.5128 73.8509 99.604C73.6138 99.6953 73.4017 99.8423 73.2318 100.031ZM27.9549 96.9806L39.3087 109.26C39.9027 109.92 39.536 111.097 38.5845 111.585C34.0095 113.932 28.8945 113.382 25.9657 110.13C23.037 106.879 23.0232 101.735 25.8346 97.4325C26.4204 96.536 27.36 96.3215 27.9549 96.9806Z" fill="#8EE000"/>
<path fill-rule="evenodd" clip-rule="evenodd" d="M28.0813 103.472C20.5839 103.472 14.5064 109.55 14.5064 117.046V134.871C14.5064 142.368 20.5839 148.446 28.0813 148.446C35.5787 148.446 41.6562 142.368 41.6562 134.871V117.046C41.6562 109.55 35.5787 103.471 28.0813 103.471V103.472Z" fill="#8EE000"/>
<path d="M68.5291 109.49C61.5239 109.49 55.8443 115.17 55.8443 122.175V130.002C55.8443 137.008 61.5239 142.687 68.5291 142.687C75.5352 142.687 81.2148 137.008 81.2148 130.002V122.175C81.2148 115.17 75.5352 109.49 68.5291 109.49Z" fill="white"/>
<mask id="mask0_1687_4327" style="mask-type:luminance" maskUnits="userSpaceOnUse" x="52" y="105" width="34" height="42">
<path d="M68.5261 109.49C61.5209 109.49 55.8413 115.17 55.8413 122.175V130.002C55.8413 137.007 61.5209 142.687 68.5261 142.687C75.5322 142.687 81.2109 137.007 81.2109 130.002V122.175C81.2109 115.17 75.5322 109.49 68.5261 109.49Z" stroke="#8EE000" stroke-width="7.623"/>
</mask>
<g mask="url(#mask0_1687_4327)">
<path d="M82.168 137.225C73.533 137.107 65.5699 139.883 58.276 145.552" stroke="#8EE000" stroke-width="7.623"/>
</g>
<path d="M29.8525 109.852C24.2489 109.852 19.7059 114.395 19.7059 120V132.54C19.7059 138.143 24.2489 142.687 29.8534 142.687C35.457 142.687 40 138.143 40 132.54V120C40 114.395 35.457 109.852 29.8525 109.852Z" fill="white"/>
<path d="M29.8525 109.852C24.2489 109.852 19.7059 114.395 19.7059 120V132.54C19.7059 138.143 24.2489 142.687 29.8534 142.687C35.457 142.687 40 138.143 40 132.54V120C40 114.395 35.457 109.852 29.8525 109.852Z" fill="white"/>
<path fill-rule="evenodd" clip-rule="evenodd" d="M29.0781 114.406C28.4363 114.405 27.8008 114.532 27.2078 114.777C26.6148 115.023 26.076 115.383 25.6221 115.837C25.1682 116.29 24.8082 116.829 24.5625 117.422C24.3169 118.015 24.1905 118.65 24.1905 119.292V128.353C24.1905 128.994 24.3169 129.63 24.5625 130.223C24.808 130.816 25.168 131.354 25.6218 131.808C26.0755 132.262 26.6143 132.622 27.2071 132.867C27.8 133.113 28.4355 133.239 29.0772 133.239C29.719 133.239 30.3544 133.113 30.9473 132.867C31.5402 132.622 32.0789 132.262 32.5327 131.808C32.9865 131.354 33.3464 130.816 33.592 130.223C33.8376 129.63 33.964 128.994 33.964 128.353V119.292C33.9637 117.997 33.4489 116.754 32.5327 115.838C31.6165 114.922 30.3739 114.406 29.0781 114.406ZM64.1911 114.043C62.6069 114.043 61.0877 114.673 59.9675 115.793C58.8474 116.913 58.2181 118.432 58.2181 120.016V126.904C58.2181 128.488 58.8474 130.008 59.9675 131.128C61.0877 132.248 62.6069 132.877 64.1911 132.877C65.7752 132.877 67.2945 132.248 68.4146 131.128C69.5348 130.008 70.1641 128.488 70.1641 126.904V120.016C70.1641 118.432 69.5348 116.913 68.4146 115.793C67.2945 114.673 65.7752 114.043 64.1911 114.043Z" fill="#4B4B4B"/>
<path fill-rule="evenodd" clip-rule="evenodd" d="M46.3135 131.687C44.5971 131.687 42.951 132.369 41.7373 133.583C40.5237 134.797 39.8418 136.443 39.8418 138.159V146.222C39.8418 147.938 40.5237 149.585 41.7373 150.798C42.951 152.012 44.5971 152.694 46.3135 152.694C48.0299 152.694 49.676 152.012 50.8896 150.798C52.1033 149.585 52.7852 147.938 52.7852 146.222V138.159C52.7852 136.443 52.1033 134.797 50.8896 133.583C49.676 132.369 48.0299 131.687 46.3135 131.687Z" fill="#F49000"/>
<path d="M45.5907 134.584C44.3426 134.584 43.1455 135.08 42.2629 135.963C41.3804 136.845 40.8845 138.042 40.8845 139.29V145.09C40.8845 146.338 41.3804 147.535 42.2629 148.418C43.1455 149.3 44.3426 149.796 45.5907 149.796C46.8389 149.796 48.0359 149.3 48.9185 148.418C49.8011 147.535 50.2969 146.338 50.2969 145.09V139.29C50.2969 138.042 49.8011 136.845 48.9185 135.963C48.0359 135.08 46.8389 134.584 45.5907 134.584Z" fill="#CD7900"/>
<mask id="mask1_1687_4327" style="mask-type:luminance" maskUnits="userSpaceOnUse" x="40" y="134" width="11" height="16">
<path d="M45.5907 134.584C44.9727 134.584 44.3607 134.706 43.7897 134.942C43.2188 135.179 42.7 135.526 42.2629 135.963C41.8259 136.4 41.4793 136.918 41.2428 137.489C41.0063 138.06 40.8845 138.672 40.8845 139.29V145.09C40.8845 146.338 41.3804 147.535 42.2629 148.418C43.1455 149.3 44.3426 149.796 45.5907 149.796C46.8389 149.796 48.0359 149.3 48.9185 148.418C49.801 147.535 50.2969 146.338 50.2969 145.09V139.29C50.2969 138.042 49.801 136.845 48.9185 135.963C48.0359 135.08 46.8389 134.584 45.5907 134.584V134.584Z" fill="#FFBABA"/>
</mask>
<g mask="url(#mask1_1687_4327)">
<path d="M50.4029 156.545C46.3042 156.545 42.9816 153.22 42.9816 149.12C42.9816 145.019 46.3042 141.695 50.4029 141.695C54.5016 141.695 57.8242 145.019 57.8242 149.12C57.8242 153.22 54.5016 156.545 50.4029 156.545Z" fill="#FFBABA"/>
</g>
<path d="M54.8108 138.161C54.0985 133.855 50.2916 130.65 45.7981 130.65C41.3046 130.65 37.4986 133.855 36.7873 138.161L36.7378 138.457L41.19 139.986L54.8594 138.457L54.8108 138.161Z" fill="#FFC200"/>
<path d="M47.6094 133.588C46.2668 133.128 44.8096 133.128 43.467 133.588" stroke="#FFDE00" stroke-width="2.59508" stroke-linecap="round" stroke-linejoin="round"/>
<path d="M69.1912 121.641C67.0467 121.641 65.3082 119.899 65.3082 117.75C65.3082 115.602 67.0467 113.86 69.1912 113.86C71.3357 113.86 73.0742 115.602 73.0742 117.75C73.0742 119.899 71.3357 121.641 69.1912 121.641Z" fill="white"/>
<path fill-rule="evenodd" clip-rule="evenodd" d="M33.9803 122.365C33.4698 122.365 32.9644 122.264 32.4929 122.068C32.0214 121.872 31.5931 121.586 31.2325 121.224C30.8718 120.863 30.5858 120.434 30.3909 119.962C30.196 119.491 30.0959 118.985 30.0964 118.475C30.0959 117.964 30.196 117.459 30.3909 116.987C30.5858 116.515 30.8718 116.086 31.2325 115.725C31.5931 115.364 32.0214 115.077 32.4929 114.881C32.9644 114.686 33.4698 114.585 33.9803 114.584C34.4907 114.585 34.996 114.686 35.4674 114.881C35.9387 115.077 36.3669 115.364 36.7275 115.725C37.0881 116.086 37.374 116.515 37.5688 116.987C37.7637 117.459 37.8638 117.964 37.8633 118.475C37.8638 118.985 37.7637 119.49 37.5688 119.962C37.374 120.434 37.0881 120.863 36.7275 121.224C36.3669 121.585 35.9387 121.872 35.4674 122.068C34.996 122.263 34.4907 122.364 33.9803 122.365Z" fill="white"/>
<path fill-rule="evenodd" clip-rule="evenodd" d="M15.0497 138.842C15.3239 139.85 15.6995 140.827 16.1707 141.759C20.2224 143.699 28.5852 145.788 35.3804 145.788C37.8004 145.788 38.3834 142.726 37.2293 142.166C30.3635 138.838 23.2685 137.675 15.9452 138.677C15.6052 138.723 15.3072 138.779 15.0497 138.842Z" fill="#8EE000"/>
<path d="M62.7928 164.024L51.1768 164.02C50.5535 164.02 50.1135 164.594 50.306 165.155C51.23 167.849 53.9176 169.711 56.9866 169.711C60.0556 169.713 62.7433 167.854 63.6655 165.159C63.858 164.599 63.4152 164.024 62.7928 164.024ZM43.607 164.024L31.991 164.02C31.3676 164.02 30.9276 164.594 31.1201 165.155C32.0441 167.849 34.7318 169.711 37.8008 169.711C40.8698 169.713 43.5575 167.854 44.4796 165.159C44.6721 164.599 44.2294 164.024 43.607 164.024ZM52.6572 173.803L41.0403 173.799C40.4179 173.799 39.977 174.374 40.1695 174.934C41.0944 177.629 43.782 179.49 46.851 179.49C49.92 179.492 52.6068 177.633 53.529 174.939C53.7215 174.378 53.2796 173.803 52.6572 173.803Z" fill="#8EE000"/>
<path d="M26.3776 197.595C27.6352 200.532 30.0204 202.476 33.5312 203.429" stroke="#F49000" stroke-width="11.979" stroke-linecap="round" stroke-linejoin="round"/>
<path d="M50.2674 0H41.3143C31.6912 0 23.8903 7.80083 23.8903 17.424V26.0388C23.8903 35.662 31.6912 43.4628 41.3143 43.4628H67.6914V17.424C67.6923 7.80267 59.8915 0 50.2674 0Z" fill="#1CB0F6"/>
<path d="M62.3065 2.89758H102.039C110.66 2.89758 117.648 9.88597 117.648 18.5066V27.8538C117.648 36.4744 110.66 43.4628 102.039 43.4628H62.3065C53.6859 43.4628 46.6975 36.4744 46.6975 27.8538V18.5066C46.6975 9.88597 53.6859 2.89758 62.3065 2.89758Z" fill="#AA572A"/>
<path d="M72.8124 0H97.6898C107.714 0 115.84 8.12603 115.84 18.15V25.3128C115.84 35.3368 107.714 43.4628 97.6898 43.4628H72.8124C62.7885 43.4628 54.6624 35.3368 54.6624 25.3128V18.15C54.6624 8.12603 62.7885 0 72.8124 0Z" fill="#1CB0F6"/>
<path d="M106.832 2.89758H132.809C141.43 2.89758 148.418 9.88597 148.418 18.5066V27.8538C148.418 36.4744 141.43 43.4628 132.809 43.4628H106.832C98.2109 43.4628 91.2226 36.4744 91.2226 27.8538V18.5066C91.2226 9.88597 98.2109 2.89758 106.832 2.89758Z" fill="#AA572A"/>
<path d="M117.697 0H139.318C149.142 0 157.105 7.96351 157.105 17.787V25.6758C157.105 35.4993 149.142 43.4628 139.318 43.4628H117.697C107.874 43.4628 99.9101 35.4993 99.9101 25.6758V17.787C99.9101 7.96351 107.874 0 117.697 0Z" fill="#1CB0F6"/>
<path d="M141.225 0H143.669C152.69 0 160.004 7.31343 160.004 16.335V27.1278C160.004 36.1494 152.69 43.4628 143.669 43.4628H141.225C132.204 43.4628 124.89 36.1494 124.89 27.1278V16.335C124.89 7.31343 132.204 0 141.225 0Z" fill="#0190D3"/>
<path d="M159.265 144.823H121.267V176.696H159.265C160.42 176.696 161.528 176.237 162.345 175.42C163.162 174.604 163.621 173.496 163.621 172.341V149.179C163.621 148.024 163.162 146.916 162.345 146.099C161.528 145.282 160.42 144.823 159.265 144.823Z" fill="#EA2B2B"/>
<path d="M153.487 150.256C152.474 150.256 151.64 151.053 151.593 152.065L151.071 163.3C151.056 163.626 151.107 163.953 151.222 164.259C151.336 164.565 151.512 164.845 151.738 165.082C151.964 165.318 152.235 165.507 152.536 165.635C152.837 165.764 153.16 165.83 153.487 165.83C153.814 165.83 154.138 165.764 154.439 165.635C154.74 165.507 155.011 165.318 155.237 165.082C155.463 164.845 155.638 164.565 155.753 164.259C155.867 163.953 155.919 163.626 155.904 163.3L155.381 152.065C155.359 151.578 155.149 151.118 154.797 150.781C154.444 150.444 153.975 150.256 153.487 150.256ZM131.52 86.9257C130.508 86.9257 129.674 87.7213 129.627 88.7333L129.105 99.9689C129.09 100.296 129.141 100.622 129.256 100.928C129.371 101.234 129.546 101.514 129.772 101.751C129.998 101.987 130.269 102.175 130.57 102.304C130.871 102.433 131.194 102.499 131.521 102.499C131.848 102.499 132.172 102.433 132.472 102.304C132.773 102.175 133.045 101.987 133.27 101.751C133.496 101.514 133.672 101.234 133.787 100.928C133.901 100.622 133.953 100.296 133.938 99.9689L133.415 88.7333C133.392 88.2463 133.183 87.7867 132.83 87.4501C132.478 87.1134 132.008 86.9256 131.52 86.9257Z" fill="#DF8A8A"/>
<path opacity="0.551" d="M155.294 80.7684H130.684C130.083 80.7684 129.595 81.2561 129.595 81.8574V83.6633C129.595 84.2646 130.083 84.7523 130.684 84.7523H155.294C155.583 84.7523 155.86 84.6375 156.064 84.4333C156.268 84.2291 156.383 83.9521 156.383 83.6633V81.8574C156.383 81.2561 155.895 80.7684 155.294 80.7684Z" fill="#D8D8D8"/>
<path d="M91.0523 140.115H99.36C108.462 140.115 115.84 147.493 115.84 156.595C115.84 165.696 108.462 173.074 99.36 173.074H91.0523C81.9507 173.074 74.5724 165.696 74.5724 156.595C74.5724 147.493 81.9507 140.115 91.0523 140.115Z" stroke="#EA2B2B" stroke-width="6.897"/>
<path d="M96.4734 180.495C85.7777 180.495 77.107 171.66 77.107 160.76C77.107 149.861 85.7777 141.026 96.4734 141.026C107.169 141.026 115.84 149.861 115.84 160.76C115.84 171.66 107.169 180.495 96.4734 180.495Z" fill="#78C800"/>
<path d="M109.674 215.31H18.5977" stroke="#E2E2E2" stroke-width="7.26733" stroke-linecap="round" stroke-linejoin="round"/>
</svg>
