<svg width="161" height="145" viewBox="0 0 161 145" fill="none" xmlns="http://www.w3.org/2000/svg">
<path fill-rule="evenodd" clip-rule="evenodd" d="M50.9648 137.267C50.9648 133.185 54.2945 129.856 58.376 129.856H69.976C74.0574 129.856 77.3871 133.185 77.3871 137.267C77.3871 141.348 74.0574 144.678 69.976 144.678H58.376C54.2945 144.678 50.9648 141.348 50.9648 137.267Z" fill="#F49000"/>
<path fill-rule="evenodd" clip-rule="evenodd" d="M82.9727 137.267C82.9727 133.185 86.3023 129.856 90.3838 129.856H101.984C106.065 129.856 109.395 133.185 109.395 137.267C109.395 141.348 106.065 144.678 101.984 144.678H90.3838C86.3023 144.678 82.9727 141.348 82.9727 137.267Z" fill="#F49000"/>
<path d="M1.01854 109.233L42.8 33.6185C45.0556 29.6444 50.5334 29 53.6482 32.3296C68.7926 48.5481 71.8 73.1444 60.8445 93.1222C49.8889 113.1 27.4408 123.518 5.63706 119.222C1.12595 118.363 -1.23701 113.315 1.01854 109.233Z" fill="#58CC02"/>
<path d="M159.339 109.233L117.557 33.6185C115.302 29.537 109.824 28.8926 106.602 32.2222C91.4572 48.4407 88.4498 73.037 99.4054 93.0148C110.361 112.993 132.809 123.411 154.613 119.115C159.231 118.363 161.594 113.315 159.339 109.233Z" fill="#58CC02"/>
<path fill-rule="evenodd" clip-rule="evenodd" d="M49.3519 2.14817C64.3889 8.48521 74.7 11.7074 80.2852 11.7074C85.8704 11.7074 95.9667 8.59262 110.789 2.25558C120.563 -1.93331 131.948 2.68521 136.137 12.4593C137.104 14.8222 137.641 17.4 137.641 19.9778V80.0186C137.641 111.811 111.863 137.589 80.0704 137.589C48.2778 137.482 22.5 111.811 22.5 80.0186V19.8704C22.5 9.23706 31.0926 0.64447 41.8333 0.64447C44.4111 0.64447 46.8815 1.18151 49.3519 2.14817Z" fill="#58CC02"/>
<path d="M75.774 98.2778C75.9888 97.5259 75.4518 96.8815 74.6999 96.8815H60.1999C59.4481 96.8815 58.911 97.6333 59.1259 98.2778C60.3073 101.607 63.637 103.97 67.3962 103.97C71.1555 103.97 74.5925 101.607 75.774 98.2778ZM99.9407 96.8815H85.4407C84.6888 96.8815 84.1518 97.6333 84.3666 98.2778C85.5481 101.607 88.8777 103.97 92.637 103.97C96.3962 103.97 99.8333 101.607 101.015 98.2778C101.23 97.6333 100.693 96.8815 99.9407 96.8815ZM87.2666 109.019H72.7666C72.0148 109.019 71.4777 109.77 71.6925 110.415C72.874 113.744 76.2036 116.107 79.9629 116.107C83.7222 116.107 87.1592 113.744 88.3407 110.415C88.6629 109.77 88.1259 109.019 87.2666 109.019Z" fill="#89E219"/>
<path d="M52.6787 11.1704L70.0787 30.0741C71.0454 31.0408 70.6157 32.6519 69.4343 33.2963C63.4194 35.9815 56.3306 34.4778 51.8194 29.4296C47.3083 24.3815 46.5565 17.1852 49.7787 11.4926C50.5306 10.3111 51.712 10.2037 52.6787 11.1704Z" fill="#89E219"/>
<path fill-rule="evenodd" clip-rule="evenodd" d="M67.7166 27.7111C74.0536 34.1556 85.224 34.1556 92.2055 27.7111C99.187 21.2667 91.1314 65.0889 91.1314 64.8741C91.1314 64.8741 87.3722 64.7667 79.8536 64.8741C77.8129 64.8741 74.1611 64.8741 69.0055 64.8741C63.9573 35.8741 63.5277 23.4148 67.7166 27.7111Z" fill="#89E219"/>
<path d="M43.1217 15.6815L60.0921 34.6926C61.0587 35.6593 60.6291 37.2704 59.4476 37.9148C53.4328 40.6 46.3439 39.0963 41.8328 34.0481C37.3217 29 36.5698 21.8037 39.8995 16.1111C40.5439 14.8222 42.155 14.7148 43.1217 15.6815Z" fill="#89E219"/>
<path fill-rule="evenodd" clip-rule="evenodd" d="M51.0692 20.9445H51.7137C64.2803 20.9445 74.3766 31.1482 74.3766 43.6074V55.637C74.3766 68.2037 64.1729 78.3 51.7137 78.3H51.0692C38.5025 78.3 28.4063 68.0963 28.4063 55.637V43.7148C28.4062 31.1482 38.5025 20.9445 51.0692 20.9445Z" fill="#89E219"/>
<path d="M107.243 11.1704L90.1653 30.0741C89.1986 31.0408 89.6283 32.6519 90.8097 33.2963C96.8246 35.9815 103.913 34.4778 108.425 29.4296C112.936 24.3815 113.688 17.1852 110.358 11.4926C109.713 10.3111 108.102 10.2037 107.243 11.1704Z" fill="#89E219"/>
<path d="M117.126 15.6815L100.048 34.6926C99.0814 35.6593 99.5111 37.2704 100.693 37.9148C106.707 40.6 113.796 39.0963 118.307 34.0481C122.818 29 123.57 21.8037 120.241 16.1111C119.704 14.8222 118.093 14.7148 117.126 15.6815Z" fill="#89E219"/>
<path fill-rule="evenodd" clip-rule="evenodd" d="M108.316 20.9445H108.961C121.527 20.9445 131.624 31.1482 131.624 43.6074V55.637C131.624 68.2037 121.42 78.3 108.961 78.3H108.424C95.9643 78.3 85.868 68.2037 85.7606 55.7445L85.6532 43.7148C85.5458 31.1482 95.6421 20.9445 108.316 20.9445Z" fill="#89E219"/>
<path fill-rule="evenodd" clip-rule="evenodd" d="M80.1766 55.7444C84.5804 55.7444 88.2322 59.3963 88.2322 63.8V66.3778C88.2322 70.7815 84.5804 74.4333 80.1766 74.4333C75.7729 74.4333 72.1211 70.7815 72.1211 66.3778V63.8C72.1211 59.3963 75.7729 55.7444 80.1766 55.7444Z" fill="#F49000"/>
<path d="M69.0078 64.337C69.9745 59.3963 74.7004 55.7444 80.2856 55.7444C85.5486 55.7444 90.1671 59.5037 91.1337 64.337V64.7667C91.1337 65.0889 91.0263 65.3037 90.7041 65.1963L80.2856 67.0222C80.0708 67.0222 80.0708 67.0222 79.856 67.0222L69.4374 65.1963C69.1152 65.1963 69.0078 65.0889 69.0078 64.7667V64.337Z" fill="#FFC200"/>
<path d="M82.541 61.0074C82.3262 61.0074 82.2187 61.0074 82.0039 60.9C80.6076 60.3629 79.3187 60.3629 78.1373 60.9C77.278 61.2222 76.4187 60.7926 76.0965 60.0407C75.7743 59.1815 76.2039 58.3222 76.9558 58C78.8891 57.2481 80.9299 57.2481 83.078 58C83.9373 58.3222 84.3669 59.1815 84.0447 60.0407C83.8299 60.5778 83.1854 61.0074 82.541 61.0074Z" fill="#FFDE00"/>
<path fill-rule="evenodd" clip-rule="evenodd" d="M52.2498 29.1074C60.9498 29.1074 68.0387 36.1963 68.0387 44.8963V54.4556C68.0387 63.1556 60.9498 70.2445 52.2498 70.2445C43.5498 70.2445 36.4609 63.1556 36.4609 54.4556V44.8963C36.4609 36.1963 43.5498 29.1074 52.2498 29.1074Z" fill="white"/>
<path fill-rule="evenodd" clip-rule="evenodd" d="M54.7197 38.1296C58.8012 38.1296 62.1308 41.4593 62.1308 45.5408V53.7037C62.1308 57.7852 58.8012 61.1148 54.7197 61.1148C50.6382 61.1148 47.3086 57.7852 47.3086 53.7037V45.5408C47.3086 41.4593 50.6382 38.1296 54.7197 38.1296Z" fill="#4B4B4B"/>
<path d="M48.4896 47.3667C51.159 47.3667 53.3229 45.2027 53.3229 42.5333C53.3229 39.864 51.159 37.7 48.4896 37.7C45.8202 37.7 43.6562 39.864 43.6562 42.5333C43.6562 45.2027 45.8202 47.3667 48.4896 47.3667Z" fill="white"/>
<path fill-rule="evenodd" clip-rule="evenodd" d="M107.781 29.1074C116.481 29.1074 123.57 36.1963 123.57 44.8963V54.4556C123.57 63.1556 116.481 70.2445 107.781 70.2445C99.0811 70.2445 91.9922 63.1556 91.9922 54.4556V44.8963C91.9922 36.1963 99.0811 29.1074 107.781 29.1074Z" fill="white"/>
<path fill-rule="evenodd" clip-rule="evenodd" d="M105.31 38.1296C109.391 38.1296 112.721 41.4593 112.721 45.5408V53.7037C112.721 57.7852 109.391 61.1148 105.31 61.1148C101.228 61.1148 97.8984 57.7852 97.8984 53.7037V45.5408C97.8984 41.4593 101.228 38.1296 105.31 38.1296Z" fill="#4B4B4B"/>
<path d="M98.2201 47.3667C100.889 47.3667 103.053 45.2027 103.053 42.5333C103.053 39.864 100.889 37.7 98.2201 37.7C95.5507 37.7 93.3867 39.864 93.3867 42.5333C93.3867 45.2027 95.5507 47.3667 98.2201 47.3667Z" fill="white"/>
</svg>
