<svg width="29" height="29" viewBox="0 0 29 29" fill="none" xmlns="http://www.w3.org/2000/svg">
<path d="M14.4462 28.8915C22.2003 28.8915 28.4862 23.9003 28.4862 17.7435C28.4862 11.5866 22.2003 6.59546 14.4462 6.59546C6.69217 6.59546 0.40625 11.5866 0.40625 17.7435C0.40625 23.9003 6.69217 28.8915 14.4462 28.8915Z" fill="#FF9600"/>
<path fill-rule="evenodd" clip-rule="evenodd" d="M16.5138 1.61941L25.4104 10.7635C25.6921 11.0529 25.8666 11.3999 25.9141 11.7649C25.9615 12.1298 25.8801 12.4982 25.679 12.8279C25.4779 13.1576 25.1653 13.4354 24.7767 13.6297C24.3881 13.824 23.9392 13.927 23.4811 13.9268H5.41514C4.95717 13.927 4.50835 13.8241 4.11979 13.6299C3.73123 13.4358 3.41855 13.1581 3.21736 12.8285C3.01617 12.4989 2.93455 12.1307 2.9818 11.7658C3.02906 11.4009 3.20328 11.0539 3.48464 10.7644L12.3813 1.61941C12.6264 1.36778 12.9399 1.16423 13.2979 1.02423C13.656 0.884229 14.0491 0.811462 14.4475 0.811462C14.8459 0.811462 15.2391 0.884229 15.5972 1.02423C15.9552 1.16423 16.2687 1.36778 16.5138 1.61941Z" fill="#FF9600"/>
<path fill-rule="evenodd" clip-rule="evenodd" d="M4.44509 5.41254L22.4245 14.6869C22.8541 14.9086 23.1862 15.2326 23.3741 15.6132C23.5621 15.9939 23.5964 16.4122 23.4724 16.8093C23.3483 17.2064 23.0721 17.5624 22.6824 17.8273C22.2928 18.0922 21.8094 18.2526 21.3001 18.2861L3.05162 19.4858C2.71497 19.5079 2.37624 19.474 2.05679 19.386C1.73734 19.2981 1.4441 19.158 1.19556 18.9748C0.947024 18.7915 0.748573 18.569 0.612724 18.3213C0.476874 18.0735 0.406572 17.8059 0.40625 17.5353L0.40625 7.17744C0.406415 6.8004 0.533325 6.43035 0.773649 6.10616C1.01397 5.78197 1.35884 5.51561 1.77203 5.33505C2.18522 5.1545 2.65147 5.06641 3.12183 5.08005C3.59218 5.09368 4.04927 5.20854 4.44509 5.41254Z" fill="#FF9600"/>
<path d="M14.4486 24.3465C17.7577 24.3465 20.4402 22.2291 20.4402 19.617C20.4402 17.005 17.7577 14.8875 14.4486 14.8875C11.1395 14.8875 8.45703 17.005 8.45703 19.617C8.45703 22.2291 11.1395 24.3465 14.4486 24.3465Z" fill="#FFC800"/>
<path fill-rule="evenodd" clip-rule="evenodd" d="M15.3294 12.7777L19.1096 16.6412C19.2311 16.7649 19.3065 16.9136 19.3275 17.0701C19.3484 17.2266 19.314 17.3847 19.228 17.5263C19.1421 17.6678 19.0082 17.7872 18.8416 17.8707C18.675 17.9541 18.4825 17.9984 18.286 17.9983H10.6061C10.4096 17.9984 10.217 17.9541 10.0504 17.8707C9.88383 17.7872 9.74992 17.6678 9.664 17.5263C9.57808 17.3847 9.54362 17.2266 9.56456 17.0701C9.58549 16.9136 9.66098 16.7649 9.7824 16.6412L13.5627 12.7777C13.6678 12.6705 13.8019 12.5838 13.9549 12.5242C14.1079 12.4646 14.2759 12.4337 14.446 12.4337C14.6162 12.4337 14.7841 12.4646 14.9371 12.5242C15.0902 12.5838 15.2243 12.6705 15.3294 12.7777Z" fill="#FFC800"/>
</svg>
