<svg width="33" height="31" viewBox="0 0 33 31" fill="none" xmlns="http://www.w3.org/2000/svg">
<g clip-path="url(#clip0_1684_4267)">
<path fill-rule="evenodd" clip-rule="evenodd" d="M3.9587 7.07397L7.88296 10.1724C8.16033 10.3914 8.56018 10.3569 8.79593 10.0936L14.6956 3.50531C15.6816 2.4043 17.3734 2.31101 18.4744 3.29694C18.5253 3.34256 18.5745 3.39011 18.6218 3.4395L25.0081 10.1074C25.2528 10.3629 25.654 10.3837 25.9238 10.1551L29.5594 7.07397C30.2854 6.45868 31.3727 6.54844 31.988 7.27445C32.3486 7.69989 32.4809 8.27352 32.3433 8.81393L27.9682 25.9871C27.7299 26.9227 26.8873 27.5775 25.9218 27.5775H7.29424C6.32874 27.5775 5.4862 26.9227 5.24785 25.9871L0.930546 9.04045C0.670672 8.02037 1.28694 6.98276 2.30702 6.72288C2.88222 6.57635 3.49285 6.70614 3.9587 7.07397Z" fill="#FFC800"/>
<path fill-rule="evenodd" clip-rule="evenodd" d="M6.38446 11.405L7.62889 12.5428C8.05927 12.9363 8.72714 12.9064 9.12063 12.476C9.13716 12.4579 9.15305 12.4392 9.16828 12.4201L12.2652 8.51962C12.7247 7.94089 13.5663 7.84423 14.145 8.30373C14.4375 8.53592 14.6196 8.87976 14.6473 9.25213L15.7452 23.9767C15.8001 24.7136 15.2473 25.3555 14.5103 25.4105C14.4772 25.4129 14.4441 25.4142 14.4109 25.4142H9.22147C8.60417 25.4142 8.06699 24.9919 7.92127 24.392L4.96979 12.2419C4.85778 11.7808 5.14078 11.3162 5.60189 11.2042C5.87991 11.1367 6.1733 11.212 6.38446 11.405Z" fill="#FFDE00"/>
</g>
<defs>
<clipPath id="clip0_1684_4267">
<rect width="32.25" height="29.4457" fill="white" transform="translate(0.375 0.777161)"/>
</clipPath>
</defs>
</svg>
