<svg width="154" height="36" viewBox="0 0 154 36" fill="none" xmlns="http://www.w3.org/2000/svg">
<path d="M133.473 18.0001C133.473 12.3077 137.81 8.29586 143.557 8.29586C149.304 8.29586 153.641 12.3077 153.641 18.0001C153.641 23.6925 149.304 27.7042 143.557 27.7042C137.81 27.7042 133.473 23.6382 133.473 18.0001ZM147.948 18.0001C147.948 15.3436 146.268 13.3919 143.611 13.3919C140.955 13.3919 139.274 15.3436 139.274 18.0001C139.274 20.6565 140.955 22.6082 143.611 22.6082C146.268 22.6082 147.948 20.7107 147.948 18.0001ZM129.678 13.5003C130.058 14.2593 130.22 15.0725 130.22 15.9399C130.22 18.0001 129.136 19.8975 127.401 21.3613C129.787 22.4998 131.196 25.2646 131.196 27.8669C131.196 32.7461 127.239 35.9989 121.221 35.9989C115.203 35.9989 111.246 32.8003 111.246 27.8669C111.192 25.1562 112.655 22.6624 115.041 21.3613C113.252 19.8975 112.222 18.0001 112.222 15.9399C112.222 11.6571 115.583 8.51272 120.896 8.51272C124.04 8.51272 124.962 9.05485 126.751 9.05485C127.943 9.10906 129.19 8.78378 130.22 8.13322C130.6 7.91637 130.979 7.75373 131.413 7.75373C132.118 7.75373 132.497 8.4585 132.497 9.32592C132.66 11.2234 131.467 12.904 129.678 13.5003ZM125.612 27.7042C125.612 25.5357 123.932 24.0177 121.275 24.0177C118.619 24.0177 116.938 25.4815 116.938 27.7042C116.938 29.7643 118.781 31.3908 121.275 31.3908C123.769 31.3908 125.612 29.7643 125.612 27.7042ZM117.751 16.2652C117.806 18.1627 119.432 19.6807 121.384 19.6265C123.227 19.5722 124.636 18.1085 124.745 16.2652C124.745 14.3135 123.335 12.9582 121.275 12.9582C119.215 12.9582 117.751 14.2593 117.751 16.2652ZM108.644 18.3795V25.1562C108.644 26.4573 108.156 26.9995 106.746 26.9995H104.849C103.439 26.9995 102.951 26.4573 102.951 25.1562V18.5422C102.951 16.8616 102.68 15.6689 102.084 14.9099C101.379 14.0425 100.295 13.6088 99.2104 13.663C98.0719 13.6088 96.9877 14.0967 96.2287 14.9099C95.5781 15.6689 95.1444 16.8616 95.1444 18.488V25.102C95.1444 26.4573 94.5481 26.9453 93.247 26.9453H91.3495C90.0484 26.9453 89.452 26.4573 89.452 25.102V9.92226C89.452 9.05485 89.8857 8.67536 90.5363 8.67536C91.5121 8.67536 92.8675 9.48856 93.8975 11.0607C95.4697 9.32592 97.6925 8.35008 100.024 8.35008C102.789 8.35008 105.011 9.32592 106.475 10.9523C107.939 12.5787 108.644 14.8015 108.644 18.3795ZM79.0431 3.09138C79.0431 1.35655 80.5068 0.0012207 82.1874 0.0012207H82.2959C83.9765 0.109647 85.2776 1.57341 85.1692 3.25402C85.0607 4.93464 83.597 6.23576 81.9164 6.12733C80.29 6.07312 79.0431 4.71778 79.0431 3.09138ZM79.4226 25.1562V10.8981C79.4226 9.59698 79.9105 9.00064 81.32 9.00064H83.2175C84.627 9.00064 85.115 9.54277 85.115 10.8981V25.1562C85.115 26.4573 84.627 26.9995 83.2175 26.9995H81.32C79.9105 26.9995 79.4226 26.4573 79.4226 25.1562ZM69.3931 25.1562V7.26581C69.3931 2.7661 71.8869 0.218074 74.0012 0.218074C74.6518 0.218074 75.0855 0.651781 75.0855 1.46498V25.1562C75.0855 26.5116 74.5434 26.9995 73.188 26.9995H71.2906C69.9894 26.9995 69.3931 26.5116 69.3931 25.1562ZM45.9729 18.0001C45.9729 12.3077 50.31 8.29586 56.0566 8.29586C61.8032 8.29586 66.1403 12.3077 66.1403 18.0001C66.1403 23.6925 61.8032 27.7042 56.0566 27.7042C50.31 27.7042 45.9729 23.6382 45.9729 18.0001ZM60.3937 18.0001C60.3937 15.3436 58.7131 13.3919 56.0566 13.3919C53.4001 13.3919 51.7195 15.3436 51.7195 18.0001C51.7195 20.6565 53.4001 22.6082 56.0566 22.6082C58.7131 22.6082 60.3937 20.7107 60.3937 18.0001ZM43.0454 10.8981V26.0778C43.0454 26.9453 42.6117 27.3248 41.9611 27.3248C40.9853 27.3248 39.63 26.5115 38.6541 24.9936C37.1361 26.7284 34.9676 27.7042 32.6364 27.65C30.4679 27.7042 28.4078 26.9453 26.7814 25.4815C25.1008 23.8551 24.1792 21.3613 24.1792 17.7832V10.8981C24.1792 9.59698 24.6671 9.00064 26.0766 9.00064H27.9741C29.3836 9.00064 29.8716 9.54277 29.8716 10.8981V17.2953C29.8716 19.4638 30.251 20.6023 30.9558 21.3613C31.6064 22.0118 32.5822 22.3913 33.5038 22.3371C34.5339 22.3371 35.5097 21.9576 36.2145 21.1986C36.9193 20.4397 37.2988 19.247 37.2988 17.4037V10.8981C37.2988 9.54277 37.8951 9.00064 39.1963 9.00064H41.0937C42.4491 9.00064 43.0454 9.54277 43.0454 10.8981ZM20.2758 1.46498V26.0778C20.2758 26.9453 19.8421 27.3248 19.1915 27.3248C18.2157 27.3248 16.8603 26.5115 15.8845 25.0478C14.6918 26.4573 12.2522 27.7042 9.43312 27.7042C3.79493 27.7042 0 23.584 0 18.0001C0 12.4161 3.90336 8.29586 9.43312 8.29586C11.2764 8.29586 13.0654 8.838 14.6376 9.86805V7.26581C14.6376 2.7661 17.1856 0.218074 19.2457 0.218074C19.8963 0.218074 20.2758 0.651781 20.2758 1.46498ZM14.6376 18.0001C14.6376 15.2352 12.6859 13.3919 10.2463 13.3919C7.80672 13.3919 5.80083 15.2352 5.80083 18.0001C5.80083 20.7649 7.75251 22.6082 10.2463 22.6082C12.7401 22.6082 14.6376 20.8191 14.6376 18.0001Z" fill="white"/>
</svg>
