<svg width="185" height="180" viewBox="0 0 185 180" fill="none" xmlns="http://www.w3.org/2000/svg">
<path d="M60.2344 148.501C65.1476 144.898 72.0519 145.959 75.6554 150.873C79.2588 155.786 78.1971 162.691 73.2839 166.294L65.0464 172.335C60.1331 175.938 53.2288 174.877 49.6253 169.965C46.0217 165.051 47.0834 158.146 51.9968 154.543L60.2344 148.501Z" fill="#E619DF"/>
<path fill-rule="evenodd" clip-rule="evenodd" d="M57.7366 150.336C61.055 155.225 59.9327 161.902 55.1296 165.423L49.3898 169.634C46.0713 164.746 47.1936 158.069 51.9967 154.546L57.7366 150.336Z" fill="#C128C1"/>
<path d="M38.0937 146.114C43.007 142.51 49.9111 143.572 53.5147 148.485C57.1182 153.398 56.0565 160.303 51.1433 163.906L42.9057 169.948C37.9924 173.551 31.0882 172.489 27.4847 167.577C23.8811 162.663 24.9429 155.759 29.8561 152.155L38.0937 146.114Z" fill="#E619DF"/>
<path d="M29.5866 110.165L62.0608 33.1733C77.4342 31.1793 96.0831 58.2072 85.1268 89.7144C75.4448 117.558 51.67 123.203 32.6208 117.245C29.6756 116.324 28.3874 113.009 29.5866 110.165Z" fill="url(#paint0_radial_1687_4299)"/>
<path d="M116.432 12.3482C110.614 11.4863 86.8139 -8.48926 59.3425 4.21726C48.9196 9.03826 43.9178 17.7145 42.3549 30.6651C40.9699 42.1412 45.6415 53.812 49.2601 66.3266C44.7015 80.7168 41.7175 90.7435 46.559 103.402C55.4181 126.564 83.655 150.696 121.328 137.231C177.997 116.977 161.603 46.7851 157.294 31.2711C152.984 15.7571 143.403 8.68626 135.431 9.33268C127.458 9.97909 122.25 13.21 116.432 12.3482Z" fill="url(#paint1_radial_1687_4299)"/>
<path fill-rule="evenodd" clip-rule="evenodd" d="M58.7863 122.728C66.1103 120.382 74.382 115.749 82.5486 106.712C83.5283 105.628 83.4435 103.955 82.3595 102.975C81.2753 101.996 79.6024 102.08 78.6229 103.164C71.064 111.529 63.5709 115.649 57.1206 117.705C56.4112 117.932 55.7132 118.133 55.0273 118.313C56.1983 119.825 57.4524 121.301 58.7863 122.728Z" fill="#1F66FB"/>
<path fill-rule="evenodd" clip-rule="evenodd" d="M156.392 38.0399C155.056 27.8249 149.685 23.7477 146.087 24.2183C142.488 24.6888 142.944 29.2412 144.28 39.4562C144.789 43.3514 145.005 45.4509 145.116 46.7082C147.586 48.4803 149.367 51.2365 149.367 54.4065C148.746 54.5986 148.067 54.7623 147.342 54.8992C148.032 56.4154 148.884 57.9465 149.845 59.0579C152.529 55.8186 155.809 53.748 158.112 52.6723C158.08 51.4842 157.965 50.1163 157.759 48.5405L156.392 38.0399Z" fill="#C7FFFE"/>
<path fill-rule="evenodd" clip-rule="evenodd" d="M145.116 46.7133C146.297 47.5604 147.32 48.6323 148.067 49.8666L148.234 49.8429C150.988 49.4535 152.904 46.9056 152.515 44.1518L150.791 31.9575C150.425 29.3709 148.155 27.5229 145.599 27.6306C146.611 28.3493 147.271 29.5307 147.271 30.8663C147.271 32.9235 145.704 34.6149 143.699 34.8129C143.858 36.2095 144.057 37.7566 144.28 39.4612C144.789 43.3566 145.005 45.4561 145.116 46.7133Z" fill="#3C4DFF"/>
<path fill-rule="evenodd" clip-rule="evenodd" d="M100.908 18.2406C110.778 16.9499 119.862 24.1843 121.198 34.3992L122.559 44.8031C123.41 51.3139 120.908 57.464 116.426 61.4025C109.964 56.5488 99.6152 50.6522 86.8015 49.3769L85.4541 39.0734C84.1183 28.8585 91.037 19.5314 100.908 18.2406Z" fill="#C7FFFE"/>
<path fill-rule="evenodd" clip-rule="evenodd" d="M102.093 34.3371C105.198 33.8088 107.284 30.9088 106.752 27.86C106.594 26.9583 106.226 26.1444 105.704 25.4592C106.348 25.1801 107.037 24.9726 107.763 24.8491C112.458 24.05 116.905 27.0683 117.694 31.5906L119.218 40.3251C120.007 44.8474 116.841 49.1612 112.145 49.9605C107.45 50.7595 103.003 47.7412 102.214 43.2189L100.689 34.4846C100.685 34.4577 100.68 34.4308 100.676 34.4038C101.139 34.4389 101.614 34.4186 102.093 34.3371Z" fill="#3C4DFF"/>
<path fill-rule="evenodd" clip-rule="evenodd" d="M129.716 56.8414C130.547 56.76 131.287 57.3679 131.368 58.1988C132.01 64.7626 133.735 69.1697 136.081 71.2277C137.198 72.208 138.476 72.6774 139.973 72.6063C141.515 72.5333 143.401 71.8794 145.644 70.3837C146.339 69.9206 147.277 70.1083 147.741 70.8031C148.204 71.4977 148.016 72.4363 147.321 72.8996C144.795 74.5833 142.382 75.5191 140.117 75.6265C137.807 75.736 135.77 74.9771 134.087 73.5005C130.833 70.645 129.017 65.2248 128.359 58.4931C128.278 57.6622 128.885 56.9226 129.716 56.8414Z" fill="#0455FF"/>
<path d="M140.728 68.5524C136.903 67.9298 136.503 65.0384 133.789 54.8967H143.931C144.153 56.587 144.776 61.7913 145.088 64.0153C145.462 66.694 144.02 69.0881 140.728 68.5524Z" fill="#0455FF"/>
<path fill-rule="evenodd" clip-rule="evenodd" d="M133.207 46.3118C133.811 46.8876 134.74 47.3092 136.037 47.3644C136.174 47.3703 136.309 47.3755 136.442 47.3807C138.941 47.4789 140.808 47.5523 142.553 50.5652C143.348 51.9396 146.852 51.9081 147.426 48.9246C145.405 46.3004 142.094 44.6141 138.927 44.6143C136.767 44.6143 134.808 45.2658 133.207 46.3118Z" fill="#C7FFFE"/>
<path fill-rule="evenodd" clip-rule="evenodd" d="M127.921 53.8397C128.134 53.0323 128.961 52.5501 129.768 52.7627C136.918 54.6461 143.593 53.897 147.7 53.0757C148.519 52.912 149.315 53.4429 149.479 54.2617C149.643 55.0803 149.112 55.8767 148.293 56.0406C143.948 56.9095 136.764 57.7324 128.998 55.6866C128.191 55.474 127.709 54.6469 127.921 53.8397Z" fill="#0455FF"/>
<path fill-rule="evenodd" clip-rule="evenodd" d="M83.7758 7.69345C82.9381 7.38185 82.1203 7.35592 81.2824 7.86593C80.5692 8.30007 79.6392 8.07387 79.2051 7.3607C78.7709 6.64752 78.9971 5.71742 79.7103 5.28329C81.5315 4.17458 83.3604 4.31305 84.8298 4.85959C86.2489 5.38736 87.4009 6.3127 88.0949 6.92965C88.7189 7.48435 88.7752 8.4399 88.2204 9.06393C87.6658 9.68796 86.7101 9.74418 86.0861 9.18949C85.4797 8.6503 84.664 8.02381 83.7758 7.69345Z" fill="#C7FFFE"/>
<path fill-rule="evenodd" clip-rule="evenodd" d="M133.768 10.6556C134.48 10.2195 135.411 10.4431 135.847 11.1551C137.733 14.2346 138.284 17.0877 137.343 19.3259C136.369 21.6428 134.06 22.7094 131.594 22.7094C130.759 22.7094 130.082 22.0327 130.082 21.1977C130.082 20.3628 130.759 19.6859 131.594 19.6859C133.248 19.6859 134.193 19.0177 134.556 18.154C134.952 17.2114 134.925 15.438 133.269 12.7343C132.832 12.0223 133.056 11.0916 133.768 10.6556Z" fill="#1F66FB"/>
<path fill-rule="evenodd" clip-rule="evenodd" d="M81.1694 5.30554C81.9014 5.707 82.1694 6.62592 81.768 7.358C80.1225 10.3586 80.9382 14.0311 81.4397 15.5356L81.809 16.6435L80.8305 17.2806C80.5414 17.4689 80.0142 17.9749 79.3711 18.862C78.7508 19.7178 78.0893 20.8361 77.4996 22.1421C76.3151 24.765 75.4685 28.0356 75.732 31.3575C76.458 40.5053 77.4625 49.7166 78.991 54.58C79.0603 54.8006 79.1302 55.027 79.2017 55.2587C79.9725 57.7544 80.9305 60.8569 83.3356 63.749C85.9216 66.8587 90.3056 69.8489 98.3163 71.1724C111.268 73.3123 118.686 69.3804 120.568 67.5373C121.165 66.9532 122.122 66.9632 122.706 67.5598C123.29 68.1564 123.28 69.1135 122.684 69.6976C119.942 72.3826 111.462 76.4089 97.8236 74.1555C89.215 72.7332 84.1333 69.437 81.0108 65.6823C78.2008 62.3032 77.0799 58.6518 76.3174 56.1684C76.2442 55.93 76.1743 55.7021 76.1065 55.4864C74.4557 50.2338 73.4371 40.6578 72.718 31.5967C72.4036 27.6349 73.4116 23.8483 74.7439 20.8976C75.4127 19.4169 76.1751 18.1193 76.9231 17.0875C77.36 16.4847 77.8187 15.9353 78.2776 15.4875C77.7271 13.3381 77.1911 9.41592 79.117 5.90415C79.5183 5.17208 80.4373 4.90408 81.1694 5.30554Z" fill="#1F66FB"/>
<path fill-rule="evenodd" clip-rule="evenodd" d="M162.754 66.2477C162.402 66.9331 161.729 67.7811 160.771 68.2928C159.776 68.824 158.314 69.0815 156.228 68.1111C155.471 67.7589 154.572 68.0872 154.22 68.8443C153.867 69.6014 154.196 70.5004 154.953 70.8526C157.837 72.1944 160.302 71.9703 162.195 70.96C162.415 70.8426 162.625 70.7158 162.825 70.5815C162.826 69.1217 162.802 67.6757 162.754 66.2477Z" fill="#0455FF"/>
<path fill-rule="evenodd" clip-rule="evenodd" d="M90.5348 5.17075C89.7248 4.94858 89.3367 4.94752 89.2273 4.96856C88.4074 5.12624 87.6148 4.5894 87.4571 3.7695C87.2996 2.9496 87.8364 2.1571 88.6562 1.99943C89.4862 1.83983 90.4447 2.0108 91.3345 2.25487C92.2771 2.5134 93.3734 2.92243 94.5773 3.43206C96.9868 4.45215 99.9841 5.94324 103.317 7.64673C104.403 8.20169 105.527 8.78024 106.681 9.37469C112.655 12.4504 119.454 15.9516 126.125 18.8106C128.266 19.7285 130.618 19.766 131.281 19.6923C132.111 19.6002 132.858 20.198 132.95 21.0279C133.043 21.8577 132.445 22.6053 131.615 22.6974C130.543 22.8165 127.648 22.7531 124.933 21.5897C118.155 18.6843 111.243 15.1247 105.271 12.0499C104.124 11.459 103.011 10.886 101.941 10.339C98.6022 8.63256 95.695 7.18856 93.3985 6.21636C92.2494 5.72986 91.2922 5.37846 90.5348 5.17075Z" fill="#C7FFFE"/>
<g style="mix-blend-mode:overlay">
<path d="M117.516 94.2627L131.958 94.4448C132.732 94.4547 133.25 95.3431 132.982 96.1994C131.69 100.314 128.25 103.123 124.435 103.075C120.619 103.026 117.377 100.133 116.371 95.9897C116.162 95.1274 116.741 94.2528 117.516 94.2627Z" fill="#204AFF"/>
</g>
<g style="mix-blend-mode:overlay">
<path d="M141.623 94.6491L154.462 94.2345C155.238 94.2083 155.774 95.0699 155.519 95.9359C154.298 100.097 151.982 102.867 148.156 102.996C144.33 103.125 141.588 100.507 140.507 96.4237C140.282 95.5739 140.847 94.6752 141.623 94.6491Z" fill="#204AFF"/>
</g>
<g style="mix-blend-mode:overlay">
<path d="M129.616 110.146L142.913 110.34C143.688 110.323 144.224 111.191 143.971 112.055C142.757 116.209 140.532 118.61 136.711 118.697C132.891 118.784 129.589 116.011 128.504 111.911C128.277 111.057 128.841 110.163 129.616 110.146Z" fill="#204AFF"/>
</g>
<defs>
<radialGradient id="paint0_radial_1687_4299" cx="0" cy="0" r="1" gradientUnits="userSpaceOnUse" gradientTransform="translate(132.784 18.5392) rotate(119.366) scale(133.976 179.711)">
<stop stop-color="#26FF55"/>
<stop offset="0.569543" stop-color="#268AFF"/>
<stop offset="0.987801" stop-color="#FC55FF"/>
</radialGradient>
<radialGradient id="paint1_radial_1687_4299" cx="0" cy="0" r="1" gradientUnits="userSpaceOnUse" gradientTransform="translate(132.784 18.5392) rotate(119.366) scale(133.976 179.711)">
<stop stop-color="#26FF55"/>
<stop offset="0.569543" stop-color="#268AFF"/>
<stop offset="0.987801" stop-color="#FC55FF"/>
</radialGradient>
</defs>
</svg>
