<svg width="34" height="34" viewBox="0 0 34 34" fill="none" xmlns="http://www.w3.org/2000/svg">
<g clip-path="url(#clip0_1687_4533)">
<path fill-rule="evenodd" clip-rule="evenodd" d="M3.5 3.96998C3.5 3.76345 3.51644 3.57017 3.54787 3.39094L16.4129 16.9727L3.52724 30.5762C3.50928 30.4362 3.5 30.2885 3.5 30.1332V3.96998ZM4.91785 32.2426C5.39128 32.3191 5.95256 32.2039 6.55307 31.8685L22.2199 23.1032L17.8975 18.5399L4.91785 32.2426ZM19.382 16.9727L24.1612 22.0181L29.9838 18.761C31.6624 17.8206 31.6624 16.2827 29.9838 15.3445L24.0624 12.0317L19.382 16.9727ZM22.1217 10.9459L6.55307 2.2357C6.07006 1.96479 5.61228 1.83704 5.20617 1.83704C5.15359 1.83704 5.10188 1.83916 5.05106 1.84339L17.8975 15.4055L22.1217 10.9459Z" fill="#4B4B4B"/>
</g>
<defs>
<clipPath id="clip0_1687_4533">
<rect width="34" height="34" fill="white"/>
</clipPath>
</defs>
</svg>
