<svg width="185" height="163" viewBox="0 0 185 163" fill="none" xmlns="http://www.w3.org/2000/svg">
<g clip-path="url(#clip0_1687_4474)">
<mask id="mask0_1687_4474" style="mask-type:alpha" maskUnits="userSpaceOnUse" x="77" y="3" width="104" height="89">
<path d="M180.773 3.69189H77.5273V91.2449H180.773V3.69189Z" fill="white"/>
</mask>
<g mask="url(#mask0_1687_4474)">
<path d="M173.803 -2.64697H84.4966C80.6473 -2.64697 77.5273 0.473363 77.5273 4.32248V77.9364C77.5273 81.7858 80.6473 84.9057 84.4966 84.9057H173.803C177.652 84.9057 180.773 81.7853 180.773 77.9364V4.32248C180.773 0.47335 177.652 -2.64697 173.803 -2.64697Z" fill="#F7F7F7"/>
<path d="M102.859 70.8427C144.324 70.8427 154.745 37.4198 159.345 22.3137" stroke="#B5E2F7" stroke-width="1.94466" stroke-linecap="round" stroke-linejoin="round"/>
<path fill-rule="evenodd" clip-rule="evenodd" d="M155.886 23.191C155.47 23.0798 155.224 22.6531 155.335 22.238C155.371 22.1042 155.442 21.9825 155.541 21.8853L160.06 17.4351C160.367 17.1333 160.86 17.1367 161.162 17.4427C161.255 17.5373 161.323 17.6542 161.358 17.7824L163.043 23.892C163.157 24.3063 162.913 24.7348 162.498 24.8489C162.365 24.8857 162.224 24.8862 162.09 24.8504" fill="#B5E2F7"/>
<path d="M96.1248 73.991H166.646C167.077 73.991 167.426 74.3397 167.426 74.7696C167.426 75.1991 167.077 75.5477 166.646 75.5477H95.3454C94.9151 75.5477 94.5664 75.1991 94.5664 74.7696V15.1833C94.5664 14.7535 94.9151 14.405 95.3454 14.405C95.7757 14.405 96.1248 14.7535 96.1248 15.1833V73.991Z" fill="#E5E5E5"/>
</g>
<path d="M181.495 0H77.081C75.1445 0 73.5742 1.56795 73.5742 3.50212V4.28035C73.5742 6.21452 75.1445 7.78247 77.081 7.78247H181.495C183.431 7.78247 185.001 6.21452 185.001 4.28035V3.50212C185.001 1.56795 183.431 0 181.495 0Z" fill="#1CB0F6"/>
<path d="M47.2469 132.016C47.2469 130.066 45.6726 128.557 43.784 128.557H38.3692C36.4803 128.557 34.9062 130.129 34.9062 132.016C34.9062 133.965 36.4803 135.475 38.3692 135.475H43.784C45.6726 135.537 47.2469 133.965 47.2469 132.016Z" fill="#F49000"/>
<path d="M61.2899 135.475C62.9902 135.475 64.4382 134.28 64.69 132.582C65.0047 130.695 63.7453 128.872 61.8568 128.557C61.479 128.495 60.9753 128.055 60.4084 127.363C59.2122 125.853 57.0714 125.539 55.4975 126.734C53.9863 127.929 53.6717 130.067 54.8678 131.639C56.5677 133.777 58.5198 135.098 60.6602 135.412C60.9121 135.475 61.1012 135.475 61.2899 135.475Z" fill="#F49000"/>
<path d="M5.19152 111.893L29.3689 79.6965C30.691 77.9987 33.2725 77.9987 34.5317 79.7597C40.5131 88.2487 40.3242 99.7565 33.9021 108.309C27.48 116.861 16.4617 120.194 6.63965 116.798C4.62483 116.107 3.86931 113.654 5.19152 111.893Z" fill="#4B4B4B"/>
<path fill-rule="evenodd" clip-rule="evenodd" d="M6.95326 109.504L13.4383 118.056C11.1717 117.993 8.90507 117.553 6.63843 116.798C4.62366 116.107 3.86811 113.591 5.12734 111.893L6.95326 109.504Z" fill="#58CC02"/>
<path d="M46.8705 94.6633L81.6883 74.1628C83.5772 73.031 85.9699 74.1 86.4105 76.238C88.6773 86.3625 84.081 96.99 74.8884 102.461C65.6962 107.932 54.1741 106.8 46.3668 99.8827C44.7297 98.3732 44.9816 95.7951 46.8705 94.6633Z" fill="#4B4B4B"/>
<path d="M78.3867 81.9188L107.776 48.2119" stroke="#A56644" stroke-width="2.00674" stroke-linecap="round"/>
<path d="M52.2848 58.693C46.0518 63.0949 41.6446 65.5474 39.063 66.1135C36.5445 66.6796 31.5705 66.1763 24.204 64.7299C19.293 63.7869 14.5708 66.931 13.6264 71.8358C13.3745 73.0307 13.3745 74.2884 13.6264 75.4205L19.4818 102.901C22.567 117.427 36.8593 126.734 51.4037 123.653C65.9477 120.571 75.2031 106.297 72.1179 91.7075L66.2623 64.1642C65.2553 59.2591 60.4072 56.1777 55.559 57.1839C54.3629 57.4985 53.2922 57.9386 52.2848 58.693Z" fill="#58CC02"/>
<path d="M34.2792 72.4018L26.283 66.5536C25.7793 66.1762 25.0238 66.4281 24.8349 66.9937C24.3312 68.5033 24.3942 70.0751 24.8978 71.5215L22.1905 69.635C21.6868 69.2576 20.9313 69.5091 20.7424 70.0751C20.3016 71.5215 20.3016 73.0938 20.7424 74.477C18.5387 76.9296 17.5313 80.3252 18.2239 83.8468L19.4202 89.3176C20.6164 95.0403 26.283 98.7506 32.0126 97.4929L32.2644 97.4297C36.4828 96.5494 39.568 93.2166 40.4494 89.2548C41.2681 89.0662 42.4642 88.8147 44.0382 88.5001C44.731 88.3746 45.864 88.1231 47.4383 87.8085C49.8306 91.0786 53.9863 92.8392 58.2048 91.9589L58.5194 91.8961C64.2491 90.7012 67.9007 85.0417 66.7046 79.319L65.5084 73.8482C64.7528 70.3266 62.3601 67.6226 59.3378 66.3021C59.1491 64.8558 58.5826 63.4094 57.5752 62.3404C57.1342 61.8375 56.3786 61.963 56.064 62.5291L54.3641 65.4218C54.2382 63.9127 53.6085 62.4032 52.6011 61.2714C52.1605 60.7685 51.5936 60.8313 51.279 61.3974L45.864 70.5785C45.8012 70.6412 45.8012 70.704 45.738 70.7667C43.4085 74.0369 38.4976 74.9803 34.7829 72.8419C34.594 72.5905 34.468 72.5277 34.2792 72.4018Z" fill="#89E219"/>
<path d="M53.1675 69.4463C49.2008 70.2638 46.6195 74.2255 47.501 78.1872L48.4453 82.5263C49.264 86.614 53.1675 89.1293 57.1341 88.3118C61.1007 87.4943 63.6821 83.5326 62.8006 79.5708L61.8563 75.2318C61.0376 71.1441 57.1341 68.6288 53.1675 69.4463Z" fill="white"/>
<path d="M53.0426 74.4775C51.1536 74.8545 49.9574 76.741 50.3352 78.6275L51.1536 82.3378C51.5314 84.2243 53.4204 85.4192 55.3093 85.0418C57.1979 84.6644 58.3944 82.7779 58.0166 80.8914L57.1979 77.1816C56.7573 75.2319 54.9315 74.037 53.0426 74.4775Z" fill="#4B4B4B"/>
<path d="M51.0129 79.4814C49.7609 79.4814 48.7461 78.4678 48.7461 77.2175C48.7461 75.9672 49.7609 74.9536 51.0129 74.9536C52.2648 74.9536 53.2796 75.9672 53.2796 77.2175C53.2796 78.4678 52.2648 79.4814 51.0129 79.4814Z" fill="white"/>
<path d="M27.7964 74.8546C23.8298 75.6721 21.2484 79.6338 22.1299 83.5955L23.0743 87.9346C23.9557 91.9591 27.8594 94.4744 31.826 93.6573C35.7926 92.8398 38.374 88.878 37.4925 84.9163L36.5481 80.5773C35.6667 76.5528 31.763 73.9743 27.7964 74.8546Z" fill="white"/>
<path d="M29.9371 79.3822C28.0483 79.7595 26.852 81.646 27.2298 83.5326L28.0483 87.2428C28.426 89.1293 30.3149 90.3242 32.2038 89.9468C34.0926 89.5695 35.2889 87.683 34.9111 85.7964L34.0926 82.0862C33.6519 80.1369 31.826 78.942 29.9371 79.3822Z" fill="#4B4B4B"/>
<path d="M27.9776 84.3325C26.7258 84.3325 25.7109 83.3189 25.7109 82.0686C25.7109 80.8183 26.7258 79.8047 27.9776 79.8047C29.2294 79.8047 30.2442 80.8183 30.2442 82.0686C30.2442 83.3189 29.2294 84.3325 27.9776 84.3325Z" fill="white"/>
<path d="M56.3771 90.0097C58.1401 88.8776 60.2809 87.8713 62.9251 87.0542C64.3735 86.6137 65.255 85.1046 64.8772 83.5954L63.6807 79.0049C57.6996 80.514 52.9773 82.7779 49.7031 85.6706L53.2292 89.6323C53.9848 90.5754 55.37 90.7013 56.3771 90.0097Z" fill="#8EE000"/>
<path d="M36.296 93.8455L38.0589 88.1859C33.8405 86.8651 28.6146 86.7396 22.5703 87.7458L23.5148 93.1539C23.7037 94.2856 24.774 95.0404 25.9073 94.9145C29.1813 94.4743 32.0146 94.5371 34.4072 95.0404C35.2257 95.1659 36.0441 94.663 36.296 93.8455Z" fill="#8EE000"/>
<path d="M42.5904 82.5264C40.5757 82.9665 39.2535 84.979 39.6942 86.9914L39.9461 88.1859C40.3868 90.1984 42.4017 91.5188 44.4162 91.0786C46.4311 90.6385 47.7531 88.6261 47.3126 86.614L47.0607 85.4191C46.6202 83.4067 44.6053 82.0862 42.5904 82.5264Z" fill="#F49000"/>
<path d="M48.5717 85.3565C47.6274 83.1553 45.1088 81.9604 42.5902 82.5265C40.1977 83.0298 38.4348 85.1678 38.4977 87.4944L38.5607 87.6831C38.6237 87.8718 38.6866 87.8718 38.8126 87.8718L43.7235 87.6831C43.8495 87.6831 43.8495 87.6831 43.9127 87.6204L48.5085 85.7966C48.6976 85.7966 48.6976 85.7338 48.6976 85.5452L48.5717 85.3565Z" fill="#FFC200"/>
<path d="M41.8966 85.1673C42.0225 85.1673 42.1484 85.1045 42.2744 85.0417C42.8413 84.6644 43.4077 84.5384 44.0374 84.6644C44.4784 84.7271 44.8557 84.4757 44.9189 84.0355C44.9817 83.5954 44.7302 83.218 44.2893 83.1552C43.345 82.9665 42.4003 83.1552 41.5188 83.7213C41.1414 83.9096 41.0782 84.4129 41.2673 84.7271C41.3933 85.0417 41.6447 85.1673 41.8966 85.1673Z" fill="#FFDE00"/>
<path d="M69.6128 88.01L72.7541 102.772L22.872 113.361L19.7305 98.5997L69.6128 88.01Z" fill="white"/>
<path fill-rule="evenodd" clip-rule="evenodd" d="M48.6955 92.4619L40.6992 94.1597C41.014 95.5433 42.3362 96.3609 43.6586 96.1094L46.7438 95.4806C48.1286 95.166 48.9473 93.8455 48.6955 92.4619Z" fill="#4B4B4B"/>
<path fill-rule="evenodd" clip-rule="evenodd" d="M46.3681 93.594L43.283 94.2228L42.7165 100.008C42.5274 101.894 43.9126 103.592 45.8643 103.781C46.2421 103.844 46.5568 103.781 46.9346 103.718C48.8235 103.341 50.0197 101.454 49.5791 99.6305C49.5164 99.3163 49.3904 98.9389 49.2013 98.6247L46.3681 93.594Z" fill="#4B4B4B"/>
<path fill-rule="evenodd" clip-rule="evenodd" d="M70.3546 80.8286L46.7439 101.517L17.9704 95.4805C17.6556 95.4173 17.2778 95.606 17.2148 95.9834C17.2148 96.0466 17.2148 96.1093 17.2148 96.2349L21.1185 122.458C21.3074 123.841 22.6296 124.784 23.9518 124.596C24.0147 124.596 24.0147 124.596 24.0777 124.596L72.4954 114.786C73.7547 114.534 74.6362 113.339 74.5103 112.082L71.4252 81.2687C71.362 80.9541 71.1101 80.6399 70.7323 80.7026C70.6064 80.7026 70.4805 80.7654 70.3546 80.8286Z" fill="#4B4B4B"/>
<path fill-rule="evenodd" clip-rule="evenodd" d="M67.6497 103.781L59.3386 105.102C59.2759 105.102 59.2127 105.102 59.1499 105.102C58.4571 105.102 57.8906 104.536 57.8906 103.844L58.1425 91.5817L69.0349 82.0232C69.0349 82.086 69.0977 82.1491 69.0977 82.2119L68.7831 102.523C68.7199 103.152 68.2793 103.655 67.6497 103.781Z" fill="#1899D6"/>
<path fill-rule="evenodd" clip-rule="evenodd" d="M31.6987 111.956C31.6987 112.585 31.195 113.088 30.5654 113.151L22.5063 113.968C21.8137 114.031 21.1841 113.528 21.1211 112.836C21.1211 112.773 21.1211 112.711 21.1211 112.711L21.3729 96.1721L32.0135 98.3728L31.6987 111.956Z" fill="#1899D6"/>
<path fill-rule="evenodd" clip-rule="evenodd" d="M42.0648 47.666L29.7243 50.3069C29.4095 50.3701 29.1577 50.6843 29.2207 51.0617L32.6206 67.034C32.6836 67.3486 32.9983 67.6001 33.3761 67.5373L45.7168 64.896C46.0314 64.8333 46.2833 64.5187 46.2205 64.1417L42.8204 48.1689C42.7576 47.8547 42.4426 47.6029 42.0648 47.666Z" fill="#4B4B4B"/>
<path fill-rule="evenodd" clip-rule="evenodd" d="M35.0752 46.5974L26.1346 48.4839C25.6309 48.6094 25.3161 49.1127 25.3791 49.6157C25.505 50.119 26.0087 50.4332 26.5124 50.3704L35.453 48.4839C35.9566 48.358 36.2715 47.8551 36.2085 47.3518C36.1455 46.7861 35.6419 46.4715 35.0752 46.5974Z" fill="#FFD900"/>
<path fill-rule="evenodd" clip-rule="evenodd" d="M48.9267 44.962L21.8529 50.6842C20.9715 50.8729 20.4678 51.6905 20.6567 52.5708C20.8456 53.451 21.6641 53.9544 22.5455 53.7657L49.6191 48.0434C50.5006 47.8547 51.0043 47.0372 50.8152 46.1569C50.6265 45.3394 49.745 44.7733 48.9267 44.962Z" fill="#4B4B4B"/>
<path fill-rule="evenodd" clip-rule="evenodd" d="M34.6967 44.7733C33.8152 44.962 33.3115 45.7795 33.5004 46.6598L33.7523 47.9175C33.9412 48.7978 34.7597 49.3011 35.6411 49.1124C36.5226 48.9237 37.0263 48.1062 36.8374 47.2259L36.5856 45.9682C36.3967 45.0879 35.5781 44.5846 34.6967 44.7733Z" fill="#4B4B4B"/>
<path fill-rule="evenodd" clip-rule="evenodd" d="M25.9556 53.1923C24.3979 52.4158 22.5375 53.0139 21.7133 54.5324L19.4572 59.0204C19.3081 59.3047 19.3943 59.6981 19.7273 59.8872L24.2141 62.1457C24.4982 62.2946 24.8917 62.2089 25.0803 61.8758L27.3365 57.3878C28.0722 55.8787 27.5133 53.9684 25.9556 53.1923Z" fill="#FFD900"/>
<path d="M23.5981 61.8925L22.4609 61.2965L23.8339 58.604C23.9831 58.3201 24.3676 58.1453 24.7008 58.334C24.9851 58.4829 25.1598 58.8669 24.971 59.2L23.5981 61.8925Z" fill="#FFC800"/>
<path d="M20.8047 60.4421L23.3315 55.5267C23.4807 55.2429 23.8652 55.0685 24.1985 55.2572C24.4827 55.4061 24.6574 55.7901 24.4686 56.1227L21.9418 61.0382L20.8047 60.4421Z" fill="#FFC800"/>
<path fill-rule="evenodd" clip-rule="evenodd" d="M27.3322 49.3637L25.4433 49.175L24.1211 54.6463L25.947 55.0864L27.3322 49.3637Z" fill="#FFD900"/>
<path d="M18.6413 58.0419C20.0895 58.0419 21.4117 57.1612 22.6079 55.4634C22.7968 55.1492 22.7339 54.7718 22.482 54.5831C22.1672 54.3944 21.7894 54.4572 21.6006 54.7091C20.6561 56.0923 19.6487 56.7843 18.6413 56.7843C18.2636 56.7843 18.0117 57.0357 18.0117 57.4131C18.0117 57.7901 18.3265 58.0419 18.6413 58.0419Z" fill="#FFD900"/>
<path fill-rule="evenodd" clip-rule="evenodd" d="M85.8058 71.8066L82.9344 71.7205C81.6989 71.6836 80.6673 72.6484 80.6299 73.8757C80.6225 74.1194 80.6554 74.363 80.728 74.5964L83.039 82.0629C83.3774 83.1552 84.5436 83.7689 85.6438 83.4325C86.4342 83.1913 87.0065 82.5079 87.1012 81.6912L87.9614 74.2834C88.1029 73.0635 87.2222 71.9609 85.9945 71.8202C85.9318 71.8128 85.8686 71.8083 85.8058 71.8066Z" fill="#58CC02"/>
<path d="M84.114 157.207H22.9035C21.5718 157.207 20.4922 158.286 20.4922 159.618C20.4922 160.95 21.5718 162.029 22.9035 162.029H84.114C85.4457 162.029 86.5253 160.95 86.5253 159.618C86.5253 158.286 85.4457 157.207 84.114 157.207Z" fill="#E5E5E5"/>
<path d="M20.4922 148.061V154.437C20.4922 155.967 19.2524 157.207 17.7229 157.207H-17.1139C-18.6433 157.207 -19.8831 155.967 -19.8831 154.437V148.061C-19.8831 146.532 -18.6433 145.292 -17.1139 145.292H17.7229C19.2524 145.292 20.4922 146.532 20.4922 148.061Z" fill="#A560E8"/>
<mask id="mask1_1687_4474" style="mask-type:alpha" maskUnits="userSpaceOnUse" x="34" y="135" width="41" height="13">
<path d="M74.8789 138.299V144.675C74.8789 146.205 73.6391 147.445 72.1097 147.445H37.2728C35.7434 147.445 34.5036 146.205 34.5036 144.675V138.299C34.5036 136.77 35.7434 135.53 37.2728 135.53H72.1097C73.6391 135.53 74.8789 136.77 74.8789 138.299Z" fill="white"/>
</mask>
<g mask="url(#mask1_1687_4474)">
<path d="M46.2072 141.03C46.5868 141.03 46.8945 141.337 46.8945 141.717C46.8945 142.097 46.5868 142.404 46.2072 142.404H37.9469C37.5673 142.404 37.2595 142.097 37.2595 141.717C37.2595 141.337 37.5673 141.03 37.9469 141.03H46.2072Z" fill="#B77FEC"/>
<path d="M50.7931 141.03C51.1727 141.03 51.4805 141.337 51.4805 141.717C51.4805 142.097 51.1727 142.404 50.7931 142.404H48.9562C48.5765 142.404 48.2688 142.097 48.2688 141.717C48.2688 141.337 48.5765 141.03 48.9562 141.03H50.7931Z" fill="#B77FEC"/>
<path d="M70.0626 141.029C70.4423 141.029 70.75 141.337 70.75 141.716C70.75 142.096 70.4423 142.404 70.0626 142.404H65.014C64.6344 142.404 64.3266 142.096 64.3266 141.716C64.3266 141.337 64.6344 141.029 65.014 141.029H70.0626Z" fill="#B77FEC"/>
</g>
<path d="M34.457 127.596V132.597C34.457 134.126 33.2172 135.366 31.6878 135.366H-15.0783C-16.6077 135.366 -17.8475 134.126 -17.8475 132.597V127.596C-17.8475 126.066 -16.6077 124.826 -15.0783 124.826H31.6878C33.2172 124.826 34.457 126.066 34.457 127.596Z" fill="#00A0F5"/>
<path opacity="0.25" d="M37.4883 146.757V157.297H33.359V146.757H37.4883Z" fill="white"/>
<path opacity="0.25" d="M73.7344 146.757V157.297H65.017V146.757H73.7344Z" fill="white"/>
</g>
<defs>
<clipPath id="clip0_1687_4474">
<rect width="185" height="162.029" fill="white"/>
</clipPath>
</defs>
</svg>
