<svg width="245" height="162" viewBox="0 0 245 162" fill="none" xmlns="http://www.w3.org/2000/svg">
<path d="M215.219 0.153564H29.3801C24.027 0.153564 19.6875 4.49308 19.6875 9.84615V141.912C19.6875 147.265 24.027 151.604 29.3801 151.604H215.219C220.572 151.604 224.911 147.265 224.911 141.912V9.84615C224.911 4.49308 220.572 0.153564 215.219 0.153564Z" fill="#5C5B5B"/>
<path d="M204.121 12.8314H38.8654C36.1891 12.8314 34.0195 15.001 34.0195 17.6773V134.08C34.0195 136.756 36.1891 138.926 38.8654 138.926H204.121C206.797 138.926 208.966 136.756 208.966 134.08V17.6773C208.966 15.001 206.797 12.8314 204.121 12.8314Z" fill="white"/>
<path d="M183.749 33.7319H182.861C181.881 33.7319 181.086 34.5268 181.086 35.5073V38.1703C181.086 39.1508 181.881 39.9457 182.861 39.9457H183.749C184.729 39.9457 185.524 39.1508 185.524 38.1703V35.5073C185.524 34.5268 184.729 33.7319 183.749 33.7319Z" fill="#78C800"/>
<path d="M183.988 28.3365L188.75 34.0514C188.858 34.181 188.927 34.3387 188.948 34.506C188.97 34.6732 188.944 34.8432 188.872 34.996C188.8 35.1487 188.687 35.2779 188.545 35.3685C188.402 35.459 188.237 35.5071 188.068 35.5072H178.544C178.375 35.5071 178.21 35.459 178.067 35.3685C177.925 35.2779 177.812 35.1487 177.74 34.996C177.668 34.8432 177.642 34.6732 177.664 34.506C177.685 34.3387 177.754 34.181 177.862 34.0514L182.624 28.3365C182.708 28.2366 182.812 28.1562 182.93 28.1011C183.047 28.0459 183.176 28.0173 183.306 28.0173C183.436 28.0173 183.565 28.0459 183.682 28.1011C183.8 28.1562 183.904 28.2366 183.988 28.3365Z" fill="#78C800"/>
<path d="M183.749 71.9022H182.861C181.881 71.9022 181.086 71.1074 181.086 70.1269V67.4638C181.086 66.4833 181.881 65.6885 182.861 65.6885H183.749C184.729 65.6885 185.524 66.4833 185.524 67.4638V70.1269C185.524 71.1074 184.729 71.9022 183.749 71.9022Z" fill="#EA2B2B"/>
<path d="M183.988 77.2975L188.75 71.5826C188.858 71.453 188.927 71.2954 188.948 71.1281C188.97 70.9608 188.944 70.7908 188.872 70.6381C188.8 70.4853 188.687 70.3561 188.545 70.2656C188.402 70.175 188.237 70.1269 188.068 70.1268H178.544C178.375 70.1269 178.21 70.175 178.067 70.2656C177.925 70.3561 177.812 70.4853 177.74 70.6381C177.668 70.7908 177.642 70.9608 177.664 71.1281C177.685 71.2954 177.754 71.453 177.862 71.5826L182.624 77.2975C182.708 77.3974 182.812 77.4778 182.93 77.533C183.047 77.5881 183.176 77.6167 183.306 77.6167C183.436 77.6167 183.565 77.5881 183.682 77.533C183.8 77.4778 183.904 77.3974 183.988 77.2975Z" fill="#EA2B2B"/>
<path d="M183.749 110.96H182.861C181.881 110.96 181.086 111.755 181.086 112.736V115.399C181.086 116.379 181.881 117.174 182.861 117.174H183.749C184.729 117.174 185.524 116.379 185.524 115.399V112.736C185.524 111.755 184.729 110.96 183.749 110.96Z" fill="#78C800"/>
<path d="M183.988 105.565L188.75 111.28C188.858 111.409 188.927 111.567 188.948 111.734C188.97 111.902 188.944 112.071 188.872 112.224C188.8 112.377 188.687 112.506 188.545 112.597C188.402 112.687 188.237 112.735 188.068 112.735H178.544C178.375 112.735 178.21 112.687 178.067 112.597C177.925 112.506 177.812 112.377 177.74 112.224C177.668 112.071 177.642 111.902 177.664 111.734C177.685 111.567 177.754 111.409 177.862 111.28L182.624 105.565C182.708 105.465 182.812 105.385 182.93 105.329C183.047 105.274 183.176 105.246 183.306 105.246C183.436 105.246 183.565 105.274 183.682 105.329C183.8 105.385 183.904 105.465 183.988 105.565Z" fill="#78C800"/>
<path d="M64.8449 25.7428C66.2689 25.7429 67.6561 26.1945 68.8072 27.0327C69.9583 27.8708 70.814 29.0524 71.2513 30.4076L75.2264 42.7232C75.3734 43.1794 75.4106 43.6638 75.3348 44.137C75.259 44.6102 75.0724 45.0587 74.7903 45.4461C74.5082 45.8335 74.1385 46.1487 73.7113 46.366C73.2842 46.5833 72.8118 46.6965 72.3325 46.6965H57.1807C56.6992 46.6965 56.2246 46.5821 55.796 46.3628C55.3674 46.1434 54.997 45.8254 54.7153 45.435C54.4336 45.0445 54.2487 44.5927 54.1757 44.1168C54.1028 43.6409 54.1439 43.1544 54.2957 42.6975L58.3942 30.3942C58.845 29.0399 59.7107 27.8618 60.8685 27.0269C62.0263 26.1921 63.4175 25.7428 64.8449 25.7428Z" fill="#2D2D2D"/>
<path d="M72.4413 39.0793C73.8586 39.0793 75.0076 37.889 75.0076 36.4207C75.0076 34.9524 73.8586 33.7621 72.4413 33.7621C71.024 33.7621 69.875 34.9524 69.875 36.4207C69.875 37.889 71.024 39.0793 72.4413 39.0793Z" fill="#8B4824"/>
<path d="M57.0741 39.0793C58.4914 39.0793 59.6404 37.889 59.6404 36.4207C59.6404 34.9524 58.4914 33.7621 57.0741 33.7621C55.6568 33.7621 54.5078 34.9524 54.5078 36.4207C54.5078 37.889 55.6568 39.0793 57.0741 39.0793Z" fill="#8B4824"/>
<path d="M64.7604 27.2953C66.5151 27.2953 68.1978 27.9923 69.4386 29.233C70.6793 30.4738 71.3763 32.1565 71.3763 33.9112V38.2697C71.3763 39.1385 71.2052 39.9988 70.8727 40.8015C70.5402 41.6042 70.0529 42.3335 69.4386 42.9478C68.8242 43.5622 68.0949 44.0495 67.2922 44.382C66.4895 44.7145 65.6292 44.8856 64.7604 44.8856C63.8916 44.8856 63.0313 44.7145 62.2286 44.382C61.426 44.0495 60.6966 43.5622 60.0823 42.9478C59.4679 42.3335 58.9806 41.6042 58.6481 40.8015C58.3157 39.9988 58.1445 39.1385 58.1445 38.2697V33.9112C58.1445 32.1565 58.8416 30.4738 60.0823 29.233C61.323 27.9923 63.0058 27.2953 64.7604 27.2953Z" fill="#A56644"/>
<path d="M66.6754 38.8307C65.6218 38.7047 64.8539 38.5502 64.379 38.3709C63.905 38.1916 63.2534 37.809 62.4314 37.2249L62.1909 37.0536L61.9743 37.6723C61.7499 38.3137 61.785 39.0174 62.072 39.6333C62.3591 40.2491 62.8754 40.7285 63.5109 40.9692C63.8165 41.0848 64.1419 41.1392 64.4686 41.1291C64.7952 41.119 65.1167 41.0446 65.4146 40.9102C65.7125 40.7759 65.981 40.5841 66.2048 40.346C66.4286 40.1078 66.6033 39.8279 66.7189 39.5222L66.7402 39.4645L66.9506 38.8636L66.6754 38.8307Z" fill="white" stroke="white" stroke-width="0.443841" stroke-linecap="round" stroke-linejoin="round"/>
<path d="M68.6409 26.9864L67.5934 29.4027C67.0321 30.6977 66.1044 31.8003 64.9245 32.5748C63.7447 33.3494 62.3641 33.762 60.9527 33.7621H57.1445L58.2666 30.4031C58.7196 29.046 59.5881 27.8657 60.7489 27.0294C61.9098 26.193 63.3043 25.7429 64.7351 25.7428C66.1705 25.7428 67.526 26.1955 68.6409 26.9864Z" fill="#2D2D2D"/>
<path d="M56.901 75.6313C55.7288 75.6313 54.7785 74.6469 54.7785 73.4326C54.7785 72.2182 55.7288 71.2338 56.901 71.2338C58.0732 71.2338 59.0234 72.2182 59.0234 73.4326C59.0234 74.6469 58.0732 75.6313 56.901 75.6313Z" fill="#CD7C60"/>
<path d="M64.5099 65.2837C62.6891 65.2837 60.9428 66.007 59.6553 67.2945C58.3678 68.582 57.6445 70.3282 57.6445 72.149V75.7503C57.6445 76.652 57.8221 77.5448 58.1672 78.3778C58.5122 79.2108 59.0179 79.9676 59.6555 80.6052C60.293 81.2427 61.0499 81.7484 61.8829 82.0935C62.7159 82.4385 63.6087 82.6161 64.5103 82.6161C65.4119 82.6161 66.3047 82.4385 67.1377 82.0935C67.9707 81.7484 68.7276 81.2427 69.3651 80.6052C70.0027 79.9676 70.5084 79.2108 70.8534 78.3778C71.1985 77.5448 71.3761 76.652 71.3761 75.7503V72.149C71.3761 71.2474 71.1985 70.3546 70.8534 69.5216C70.5083 68.6886 70.0025 67.9317 69.3649 67.2942C68.7274 66.6567 67.9704 66.151 67.1374 65.806C66.3043 65.4611 65.4115 65.2836 64.5099 65.2837Z" fill="#DB8E73"/>
<path d="M65.634 74.338H63.6367V75.373H65.634V74.338Z" fill="#B4654A"/>
<path d="M60.3871 72.2049C60.3871 71.2396 61.1697 70.457 62.135 70.457C63.1003 70.457 63.8828 71.2396 63.8828 72.2049V74.1418C63.8828 75.1071 63.1003 75.8896 62.135 75.8896C61.1697 75.8896 60.3871 75.1071 60.3871 74.1418V72.2049Z" fill="white"/>
<path d="M61.6383 72.4996C61.6383 72.0858 61.9737 71.7504 62.3875 71.7504C62.8013 71.7504 63.1367 72.0858 63.1367 72.4996V73.8471C63.1367 74.2608 62.8013 74.5963 62.3875 74.5963C61.9737 74.5963 61.6383 74.2608 61.6383 73.8471V72.4996Z" fill="#4B4B4B"/>
<path d="M68.8785 72.2049C68.8785 71.2396 68.096 70.457 67.1307 70.457C66.1653 70.457 65.3828 71.2396 65.3828 72.2049V74.1418C65.3828 75.1071 66.1653 75.8896 67.1307 75.8896C68.096 75.8896 68.8785 75.1071 68.8785 74.1418V72.2049Z" fill="white"/>
<path d="M67.6312 72.4996C67.6312 72.0858 67.2958 71.7504 66.882 71.7504C66.4682 71.7504 66.1328 72.0858 66.1328 72.4996V73.8471C66.1328 74.2608 66.4682 74.5963 66.882 74.5963C67.2958 74.5963 67.6312 74.2608 67.6312 73.8471V72.4996Z" fill="#4B4B4B"/>
<path d="M61.6363 79.2531C60.1195 79.2531 58.8898 77.9789 58.8898 76.4072C58.8898 74.8354 60.1195 73.5613 61.6363 73.5613C63.1532 73.5613 64.3828 74.8354 64.3828 76.4072C64.3828 77.9789 63.1532 79.2531 61.6363 79.2531Z" fill="#DB8E73"/>
<path d="M67.6285 79.2531C66.1117 79.2531 64.882 77.9789 64.882 76.4072C64.882 74.8354 66.1117 73.5613 67.6285 73.5613C69.1454 73.5613 70.375 74.8354 70.375 76.4072C70.375 77.9789 69.1454 79.2531 67.6285 79.2531Z" fill="#DB8E73"/>
<path d="M65.2562 75.5284V72.6292C65.2562 72.4305 65.1773 72.2399 65.0368 72.0994C64.8963 71.9589 64.7057 71.88 64.507 71.88C64.3083 71.88 64.1178 71.9589 63.9772 72.0994C63.8367 72.2399 63.7578 72.4305 63.7578 72.6292V75.5284C63.7578 75.7271 63.8367 75.9176 63.9772 76.0581C64.1178 76.1986 64.3083 76.2776 64.507 76.2776C64.7057 76.2776 64.8963 76.1986 65.0368 76.0581C65.1773 75.9176 65.2562 75.7271 65.2562 75.5284Z" fill="#B4654A"/>
<path d="M64.1718 76.6655H64.8491C65.4207 76.6655 65.8832 76.203 65.8832 75.6322V75.6305C65.8832 75.0588 65.4207 74.5963 64.8491 74.5963H64.1709C63.6001 74.5963 63.1367 75.0588 63.1367 75.6305V75.6322C63.1367 76.203 63.601 76.6655 64.1718 76.6655Z" fill="#B4654A"/>
<path d="M60.3165 65.2739C63.553 62.918 68.0296 63.1718 71.1293 65.9645C74.23 68.7571 75.0955 73.3145 73.2944 76.9638C73.2587 77.0368 73.2064 77.1005 73.1416 77.1496C73.0769 77.1988 73.0015 77.232 72.9215 77.2467C72.8415 77.2614 72.7592 77.2571 72.6812 77.2342C72.6032 77.2112 72.5317 77.1703 72.4724 77.1147L60.2863 66.1394C60.0227 65.9015 60.0378 65.4772 60.3165 65.2739Z" fill="#FFD900"/>
<path d="M64.6929 77.5158C63.9597 77.4244 63.4262 77.3143 63.0977 77.1909C62.7711 77.0675 62.3166 76.8057 61.7431 76.4044L61.5035 76.2375L61.341 76.6991C61.1776 77.1648 61.2028 77.6758 61.4113 78.1231C61.6198 78.5703 61.9951 78.9182 62.4568 79.0923C62.6799 79.1764 62.9174 79.2157 63.1557 79.208C63.3941 79.2003 63.6285 79.1457 63.8457 79.0474C64.0629 78.949 64.2586 78.8089 64.4217 78.6349C64.5847 78.4609 64.7118 78.2565 64.7959 78.0333L64.8101 77.9952L64.9663 77.5495L64.6929 77.5158Z" fill="white" stroke="white" stroke-width="0.443841" stroke-linecap="round" stroke-linejoin="round"/>
<path d="M61.2207 69.8036C59.4986 69.3749 58.2656 67.7806 58.2656 65.9298C58.2656 64.079 59.4995 62.4847 61.2216 62.0569C61.2568 62.0487 61.2933 62.0488 61.3285 62.0569C61.3637 62.0651 61.3965 62.0812 61.4245 62.1039C61.4525 62.1267 61.4749 62.1556 61.4901 62.1883C61.5052 62.2211 61.5127 62.2569 61.5119 62.293V69.5675C61.5119 69.7246 61.3698 69.84 61.2216 69.8036H61.2207Z" fill="#FFD900"/>
<path d="M57.5299 75.6313C56.3577 75.6313 55.4075 74.6469 55.4075 73.4326C55.4075 72.2182 56.3577 71.2338 57.5299 71.2338C58.7021 71.2338 59.6523 72.2182 59.6523 73.4326C59.6523 74.6469 58.7021 75.6313 57.5299 75.6313Z" fill="#CD7C60"/>
<path d="M64.5099 65.2837C62.6891 65.2837 60.9428 66.007 59.6553 67.2945C58.3678 68.582 57.6445 70.3282 57.6445 72.149V76.2679C57.6445 78.0888 58.3679 79.8351 59.6555 81.1227C60.9431 82.4103 62.6894 83.1336 64.5103 83.1336C66.3312 83.1336 68.0776 82.4103 69.3651 81.1227C70.6527 79.8351 71.3761 78.0888 71.3761 76.2679V72.149C71.3761 71.2474 71.1985 70.3546 70.8534 69.5216C70.5083 68.6886 70.0025 67.9317 69.3649 67.2942C68.7274 66.6567 67.9704 66.151 67.1374 65.806C66.3043 65.4611 65.4115 65.2836 64.5099 65.2837Z" fill="#DB8E73"/>
<path d="M61.6363 79.2531C60.1195 79.2531 58.8898 77.9789 58.8898 76.4072C58.8898 74.8354 60.1195 73.5613 61.6363 73.5613C63.1532 73.5613 64.3828 74.8354 64.3828 76.4072C64.3828 77.9789 63.1532 79.2531 61.6363 79.2531Z" fill="#DB8E73"/>
<path d="M67.6285 79.2531C66.1117 79.2531 64.882 77.9789 64.882 76.4072C64.882 74.8354 66.1117 73.5613 67.6285 73.5613C69.1454 73.5613 70.375 74.8354 70.375 76.4072C70.375 77.9789 69.1454 79.2531 67.6285 79.2531Z" fill="#DB8E73"/>
<path d="M62.2617 77.8799C62.5575 78.191 62.9134 78.4386 63.3079 78.6079C63.7024 78.7771 64.1271 78.8644 64.5564 78.8644C64.9856 78.8644 65.4104 78.7771 65.8048 78.6079C66.1993 78.4386 66.5553 78.191 66.851 77.8799" stroke="#B4654A" stroke-width="1.29246" stroke-linecap="round"/>
<path d="M59.5904 64.5611C63.0426 62.0348 67.7988 62.2798 71.0788 65.2348C74.3588 68.189 75.2553 73.0349 73.3211 76.9283C73.2835 77.0061 73.2282 77.0741 73.1596 77.1268C73.0911 77.1794 73.0111 77.2153 72.9262 77.2314C72.8412 77.2475 72.7537 77.2435 72.6706 77.2197C72.5875 77.1959 72.5111 77.1529 72.4476 77.0943L59.554 65.4807C59.4886 65.422 59.4369 65.3496 59.4026 65.2687C59.3684 65.1877 59.3525 65.1002 59.3559 65.0124C59.3594 64.9245 59.3822 64.8385 59.4228 64.7605C59.4633 64.6825 59.5205 64.6144 59.5904 64.5611Z" fill="#FFD900"/>
<path d="M72.5546 114.797C73.9719 114.797 75.1209 113.606 75.1209 112.138C75.1209 110.67 73.9719 109.479 72.5546 109.479C71.1372 109.479 69.9883 110.67 69.9883 112.138C69.9883 113.606 71.1372 114.797 72.5546 114.797Z" fill="#A0563C"/>
<path d="M56.7147 114.797C58.132 114.797 59.281 113.606 59.281 112.138C59.281 110.67 58.132 109.479 56.7147 109.479C55.2974 109.479 54.1484 110.67 54.1484 112.138C54.1484 113.606 55.2974 114.797 56.7147 114.797Z" fill="#A0563C"/>
<path d="M59.4628 99.6493H69.807C70.0786 99.6493 70.3475 99.7028 70.5985 99.8067C70.8494 99.9107 71.0774 100.063 71.2695 100.255C71.4615 100.447 71.6139 100.675 71.7178 100.926C71.8218 101.177 71.8753 101.446 71.8753 101.718V109.221H57.3945V101.718C57.3945 101.169 57.6124 100.643 58.0003 100.255C58.3882 99.8672 58.9143 99.6493 59.4628 99.6493Z" fill="#3D3D3D"/>
<path d="M68.7728 105.082H60.497C60.0896 105.082 59.6862 105.162 59.3098 105.318C58.9334 105.474 58.5914 105.702 58.3033 105.99C58.0152 106.278 57.7866 106.62 57.6307 106.996C57.4748 107.373 57.3945 107.776 57.3945 108.183V113.754C57.3945 115.639 58.1435 117.447 59.4766 118.78C60.8097 120.113 62.6178 120.862 64.5031 120.862H64.7667C66.652 120.862 68.4601 120.113 69.7932 118.78C71.1263 117.447 71.8753 115.639 71.8753 113.754V108.183C71.8753 107.776 71.795 107.373 71.6391 106.996C71.4832 106.62 71.2546 106.278 70.9665 105.99C70.6784 105.702 70.3364 105.474 69.96 105.318C69.5836 105.162 69.1802 105.082 68.7728 105.082Z" fill="#C6775C"/>
<path d="M66.6747 114.887C65.621 114.762 64.8531 114.608 64.3782 114.427C63.9042 114.248 63.2526 113.865 62.4306 113.282L62.191 113.111L61.9744 113.729C61.7499 114.37 61.7849 115.074 62.0718 115.69C62.3586 116.305 62.8748 116.785 63.5101 117.026C63.8157 117.141 64.141 117.196 64.4677 117.186C64.7943 117.176 65.1157 117.101 65.4136 116.967C65.7115 116.833 65.98 116.641 66.2039 116.403C66.4277 116.165 66.6025 115.885 66.7181 115.58L66.7395 115.521L66.9498 114.92L66.6747 114.887Z" fill="white" stroke="white" stroke-width="0.443841" stroke-linecap="round" stroke-linejoin="round"/>
<path d="M1.61558 147.009H242.985C243.197 147.009 243.407 147.051 243.603 147.132C243.8 147.213 243.978 147.332 244.128 147.482C244.278 147.633 244.397 147.811 244.478 148.007C244.559 148.203 244.601 148.413 244.601 148.625V154.283C244.601 158.301 241.346 161.558 237.33 161.558H7.27011C3.25513 161.558 2.43891e-07 158.3 2.43891e-07 154.283V148.625C-0.000116369 148.413 0.0415858 148.203 0.122724 148.007C0.203862 147.811 0.322847 147.633 0.472879 147.482C0.622911 147.332 0.80105 147.213 0.997119 147.132C1.19319 147.051 1.40334 147.009 1.61558 147.009Z" fill="#C1C9CB"/>
<path opacity="0.25" d="M271.629 -19.5289V114.919L43.4961 -19.5289H271.629Z" fill="white"/>
<path d="M97.5 40.3726L108.13 33.0084L118.759 40.994L129.389 27.9619L140.018 37.4601L150.648 31.0688" stroke="#FFC800" stroke-width="1.77536"/>
<path d="M106.965 36.3949C108.191 36.3949 109.184 35.4014 109.184 34.1757C109.184 32.9501 108.191 31.9565 106.965 31.9565C105.74 31.9565 104.746 32.9501 104.746 34.1757C104.746 35.4014 105.74 36.3949 106.965 36.3949Z" fill="white" stroke="#FFC800" stroke-width="1.77536"/>
<path d="M95.4262 42.6087C96.6519 42.6087 97.6454 41.6151 97.6454 40.3895C97.6454 39.1639 96.6519 38.1703 95.4262 38.1703C94.2006 38.1703 93.207 39.1639 93.207 40.3895C93.207 41.6151 94.2006 42.6087 95.4262 42.6087Z" fill="white" stroke="#FFC800" stroke-width="1.77536"/>
<path d="M117.618 43.4964C118.843 43.4964 119.837 42.5028 119.837 41.2772C119.837 40.0516 118.843 39.058 117.618 39.058C116.392 39.058 115.398 40.0516 115.398 41.2772C115.398 42.5028 116.392 43.4964 117.618 43.4964Z" fill="white" stroke="#FFC800" stroke-width="1.77536"/>
<path d="M129.157 31.0689C130.382 31.0689 131.376 30.0753 131.376 28.8497C131.376 27.6241 130.382 26.6305 129.157 26.6305C127.931 26.6305 126.938 27.6241 126.938 28.8497C126.938 30.0753 127.931 31.0689 129.157 31.0689Z" fill="white" stroke="#FFC800" stroke-width="1.77536"/>
<path d="M139.809 39.9456C141.035 39.9456 142.028 38.952 142.028 37.7264C142.028 36.5008 141.035 35.5072 139.809 35.5072C138.583 35.5072 137.59 36.5008 137.59 37.7264C137.59 38.952 138.583 39.9456 139.809 39.9456Z" fill="white" stroke="#FFC800" stroke-width="1.77536"/>
<path d="M151.348 32.8442C152.574 32.8442 153.567 31.8506 153.567 30.625C153.567 29.3993 152.574 28.4058 151.348 28.4058C150.122 28.4058 149.129 29.3993 149.129 30.625C149.129 31.8506 150.122 32.8442 151.348 32.8442Z" fill="white" stroke="#FFC800" stroke-width="1.77536"/>
<path d="M97.5 114.05L108.13 106.686L118.759 114.672L129.389 101.64L140.018 111.138L150.648 104.746" stroke="#FFC800" stroke-width="1.77536"/>
<path d="M106.965 110.072C108.191 110.072 109.184 109.079 109.184 107.853C109.184 106.628 108.191 105.634 106.965 105.634C105.74 105.634 104.746 106.628 104.746 107.853C104.746 109.079 105.74 110.072 106.965 110.072Z" fill="white" stroke="#FFC800" stroke-width="1.77536"/>
<path d="M95.4262 116.286C96.6519 116.286 97.6454 115.293 97.6454 114.067C97.6454 112.841 96.6519 111.848 95.4262 111.848C94.2006 111.848 93.207 112.841 93.207 114.067C93.207 115.293 94.2006 116.286 95.4262 116.286Z" fill="white" stroke="#FFC800" stroke-width="1.77536"/>
<path d="M117.618 117.174C118.843 117.174 119.837 116.18 119.837 114.955C119.837 113.729 118.843 112.735 117.618 112.735C116.392 112.735 115.398 113.729 115.398 114.955C115.398 116.18 116.392 117.174 117.618 117.174Z" fill="white" stroke="#FFC800" stroke-width="1.77536"/>
<path d="M129.157 104.746C130.382 104.746 131.376 103.753 131.376 102.527C131.376 101.302 130.382 100.308 129.157 100.308C127.931 100.308 126.938 101.302 126.938 102.527C126.938 103.753 127.931 104.746 129.157 104.746Z" fill="white" stroke="#FFC800" stroke-width="1.77536"/>
<path d="M139.809 113.623C141.035 113.623 142.028 112.63 142.028 111.404C142.028 110.178 141.035 109.185 139.809 109.185C138.583 109.185 137.59 110.178 137.59 111.404C137.59 112.63 138.583 113.623 139.809 113.623Z" fill="white" stroke="#FFC800" stroke-width="1.77536"/>
<path d="M151.348 106.522C152.574 106.522 153.567 105.528 153.567 104.303C153.567 103.077 152.574 102.083 151.348 102.083C150.122 102.083 149.129 103.077 149.129 104.303C149.129 105.528 150.122 106.522 151.348 106.522Z" fill="white" stroke="#FFC800" stroke-width="1.77536"/>
<path d="M97.5 67.8907L108.13 70.291L118.759 73.8382L129.389 69.683L140.018 74.7428L150.648 77.2283" stroke="#FFC800" stroke-width="1.77536"/>
<path d="M106.965 71.9022C108.191 71.9022 109.184 70.9086 109.184 69.6829C109.184 68.4573 108.191 67.4637 106.965 67.4637C105.74 67.4637 104.746 68.4573 104.746 69.6829C104.746 70.9086 105.74 71.9022 106.965 71.9022Z" fill="white" stroke="#FFC800" stroke-width="1.77536"/>
<path d="M95.4262 68.3515C96.6519 68.3515 97.6454 67.3579 97.6454 66.1323C97.6454 64.9067 96.6519 63.9131 95.4262 63.9131C94.2006 63.9131 93.207 64.9067 93.207 66.1323C93.207 67.3579 94.2006 68.3515 95.4262 68.3515Z" fill="white" stroke="#FFC800" stroke-width="1.77536"/>
<path d="M117.618 76.3406C118.843 76.3406 119.837 75.3471 119.837 74.1214C119.837 72.8958 118.843 71.9022 117.618 71.9022C116.392 71.9022 115.398 72.8958 115.398 74.1214C115.398 75.3471 116.392 76.3406 117.618 76.3406Z" fill="white" stroke="#FFC800" stroke-width="1.77536"/>
<path d="M129.157 71.9022C130.382 71.9022 131.376 70.9086 131.376 69.6829C131.376 68.4573 130.382 67.4637 129.157 67.4637C127.931 67.4637 126.938 68.4573 126.938 69.6829C126.938 70.9086 127.931 71.9022 129.157 71.9022Z" fill="white" stroke="#FFC800" stroke-width="1.77536"/>
<path d="M139.809 77.2282C141.035 77.2282 142.028 76.2346 142.028 75.009C142.028 73.7834 141.035 72.7898 139.809 72.7898C138.583 72.7898 137.59 73.7834 137.59 75.009C137.59 76.2346 138.583 77.2282 139.809 77.2282Z" fill="white" stroke="#FFC800" stroke-width="1.77536"/>
<path d="M151.348 79.8913C152.574 79.8913 153.567 78.8977 153.567 77.6721C153.567 76.4465 152.574 75.4529 151.348 75.4529C150.122 75.4529 149.129 76.4465 149.129 77.6721C149.129 78.8977 150.122 79.8913 151.348 79.8913Z" fill="white" stroke="#FFC800" stroke-width="1.77536"/>
</svg>
