<svg width="33" height="33" viewBox="0 0 33 33" fill="none" xmlns="http://www.w3.org/2000/svg">
<path fill-rule="evenodd" clip-rule="evenodd" d="M5.47817 15.618C5.47817 9.40324 10.5162 4.36523 16.7308 4.36523C22.9456 4.36523 27.9836 9.40324 27.9836 15.618V15.959C30.0149 16.9509 31.4142 19.0369 31.4142 21.4497C31.4142 24.8222 28.6801 27.5563 25.3075 27.5563H8.01682C4.64419 27.5563 1.91016 24.8222 1.91016 21.4497C1.91016 18.9828 3.37281 16.8576 5.47817 15.894V15.618Z" fill="#9069CD"/>
<path fill-rule="evenodd" clip-rule="evenodd" d="M8.02847 21.1792C6.41344 20.861 5.19531 19.4371 5.19531 17.7287C5.19531 15.9909 6.45577 14.5475 8.11232 14.2628C8.75634 10.2466 12.2375 7.17822 16.4353 7.17822C20.6332 7.17822 24.1144 10.2466 24.7583 14.263C26.4145 14.548 27.6745 15.9912 27.6745 17.7287C27.6745 19.4368 26.4568 20.8605 24.8422 21.179C24.5218 25.5422 20.8803 28.9826 16.4353 28.9826C11.9904 28.9826 8.34894 25.5423 8.02847 21.1792Z" fill="#F3AD6D"/>
<path fill-rule="evenodd" clip-rule="evenodd" d="M13.5742 15C13.5742 14.4315 14.035 13.9707 14.6035 13.9707C15.1719 13.9707 15.6327 14.4315 15.6327 15V17.7445C15.6327 18.3129 15.1719 18.7737 14.6035 18.7737C14.035 18.7737 13.5742 18.3129 13.5742 17.7445V15Z" fill="#BF8034"/>
<path fill-rule="evenodd" clip-rule="evenodd" d="M17.1406 15C17.1406 14.4315 17.6014 13.9707 18.1698 13.9707C18.7383 13.9707 19.199 14.4315 19.199 15V17.7445C19.199 18.3129 18.7383 18.7737 18.1698 18.7737C17.6014 18.7737 17.1406 18.3129 17.1406 17.7445V15Z" fill="#BF8034"/>
<path d="M13.5737 20.3213H19.3522C19.71 20.3213 20.0001 20.6113 20.0001 20.9692V21.3052C20.0001 23.2587 18.4165 24.8423 16.463 24.8423C14.5095 24.8423 12.9258 23.2587 12.9258 21.3052V20.9692C12.9258 20.6113 13.2159 20.3213 13.5737 20.3213Z" fill="white"/>
<path fill-rule="evenodd" clip-rule="evenodd" d="M19.0769 6.95881L19.5603 7.53047V9.46456L17.0575 12.0584L13.5449 13.9045L9.63743 14.564H7.39844V13.3772L8.67168 10.7614L10.4279 8.49762L14.2476 6.6073H17.5404L19.0769 6.95881Z" fill="#9069CD"/>
<path d="M5.83594 14.9311H8.77055C12.4083 14.9063 18.1983 14.3891 20.0847 7.73162C20.1812 7.34076 20.274 6.88888 20.3631 6.37598" stroke="#9069CD" stroke-width="1.85712"/>
</svg>
